<?xml version="1.0" standalone="no"?>
<!DOCTYPE svg PUBLIC "-//W3C//DTD SVG 20010904//EN"
 "http://www.w3.org/TR/2001/REC-SVG-20010904/DTD/svg10.dtd">
<svg version="1.0" xmlns="http://www.w3.org/2000/svg"
 width="1026.000000pt" height="800.000000pt" viewBox="0 0 1026.000000 800.000000"
 preserveAspectRatio="xMidYMid meet">

<g transform="translate(0.000000,800.000000) scale(0.100000,-0.100000)"
fill="#000000" stroke="none">
<path d="M0 4000 l0 -4000 5130 0 5130 0 0 4000 0 4000 -5130 0 -5130 0 0
-4000z m10227 3968 l23 -21 0 -3944 0 -3944 -25 -24 -24 -25 -5071 0 -5071 0
-24 25 c-25 24 -25 24 -25 235 l0 210 310 0 c303 0 310 0 310 20 0 13 -7 20
-20 20 -18 0 -20 7 -20 80 0 73 2 80 20 80 11 0 20 5 20 10 0 6 -110 10 -310
10 -200 0 -310 4 -310 10 0 6 73 10 198 11 108 0 191 3 185 6 -20 8 -15 23 7
23 11 0 20 -7 20 -15 0 -8 5 -15 10 -15 6 0 10 11 10 24 0 13 6 26 12 29 8 2
-5 21 -31 46 -36 34 -42 45 -30 53 11 7 11 11 2 15 -19 7 -17 63 3 63 22 0 53
32 36 38 -6 2 -12 12 -12 23 0 10 -4 19 -10 19 -5 0 -10 -4 -10 -10 0 -5 -4
-10 -10 -10 -18 0 -11 55 10 70 21 15 28 50 10 50 -5 0 -10 -7 -10 -16 0 -8
-6 -22 -14 -30 -17 -16 -46 -19 -46 -4 0 6 9 10 20 10 13 0 20 7 20 20 0 13
-7 20 -20 20 -13 0 -20 7 -20 20 0 11 5 20 10 20 6 0 10 7 10 15 0 13 21 15
130 15 123 0 130 1 130 20 0 13 -7 20 -20 20 -18 0 -20 7 -20 80 0 73 2 80 20
80 11 0 20 5 20 10 0 6 -108 10 -305 10 l-305 0 0 2976 c0 2831 1 2976 17
2968 10 -5 170 -10 356 -12 l337 -3 0 -49 c0 -81 -3 -80 266 -80 204 0 234 2
234 15 0 22 -39 59 -89 84 -22 12 -41 23 -41 25 0 3 29 21 65 41 101 56 91 65
-75 65 l-140 0 0 85 c0 96 -16 141 -53 150 -12 3 -213 4 -447 3 l-425 -3 437
-3 437 -2 16 -30 c20 -38 23 -312 3 -292 -9 9 -118 12 -430 12 -295 0 -424 3
-443 12 l-25 11 0 279 c0 265 1 279 20 298 20 20 33 20 5097 20 l5077 0 23
-22z m-9017 -537 c0 -4 -31 -22 -70 -39 -43 -19 -70 -37 -70 -46 0 -9 23 -27
52 -42 50 -25 78 -46 78 -58 0 -11 -448 -7 -455 4 -3 6 -1 10 5 10 6 0 8 5 5
10 -3 6 3 10 15 10 12 0 18 5 15 10 -4 6 17 10 56 10 82 0 99 15 99 87 l0 53
135 0 c74 0 135 -4 135 -9z m-325 -90 c-3 -5 3 -12 12 -14 10 -3 -16 -5 -57
-6 -44 -1 -81 -6 -88 -13 -9 -9 -12 -9 -12 1 0 7 9 15 20 18 11 3 17 9 14 14
-3 5 22 9 56 9 35 0 59 -4 55 -9z m-805 -6021 l0 -80 -35 0 -35 0 0 80 0 80
35 0 35 0 0 -80z m100 0 l0 -80 -30 0 -30 0 0 80 0 80 30 0 30 0 0 -80z m120
0 l0 -80 -40 0 -40 0 0 80 0 80 40 0 40 0 0 -80z m120 0 l0 -80 -40 0 -40 0 0
80 0 80 40 0 40 0 0 -80z m120 0 l0 -80 -40 0 -40 0 0 80 0 80 40 0 40 0 0
-80z m-220 -240 c0 -5 -4 -10 -10 -10 -5 0 -10 5 -10 10 0 6 5 10 10 10 6 0
10 -4 10 -10z m100 -100 c0 -5 -4 -10 -10 -10 -5 0 -10 5 -10 10 0 6 5 10 10
10 6 0 10 -4 10 -10z m-60 -20 c0 -5 -9 -10 -20 -10 -11 0 -20 5 -20 10 0 6 9
10 20 10 11 0 20 -4 20 -10z m6 -65 c14 -13 14 -17 0 -30 -18 -19 -33 -19 -52
-1 -19 20 -18 26 6 26 11 0 20 5 20 10 0 14 9 12 26 -5z m31 -91 c14 -14 22
-28 19 -32 -4 -3 -11 0 -16 8 -7 12 -12 11 -28 -8 -11 -12 -22 -22 -26 -22
-11 0 -6 51 7 65 16 19 14 19 44 -11z m30 -204 l1 -80 -26 1 c-24 2 -24 2 -4
6 29 6 28 28 -3 58 -30 31 -32 31 -38 3 -3 -13 -3 2 -2 32 2 30 3 56 4 58 1 1
16 2 34 2 l33 0 1 -80z m123 0 l0 -80 -40 0 -40 0 0 80 0 80 40 0 40 0 0 -80z"/>
<path d="M9989 7878 l24 -28 -24 -27 -24 -28 28 24 27 24 28 -24 27 -24 -24
28 -24 27 24 28 24 27 -27 -24 -28 -24 -27 24 -28 24 24 -27z"/>
<path d="M323 7873 c-4 -11 1 -22 15 -31 28 -19 28 -32 0 -33 -19 -1 -20 -2
-4 -6 10 -3 23 0 30 7 8 9 5 16 -11 30 -27 22 -29 37 -5 43 16 4 16 5 -1 6
-10 0 -21 -7 -24 -16z"/>
<path d="M382 7845 c0 -34 2 -42 7 -26 9 35 29 37 34 4 4 -26 4 -25 6 6 1 28
-2 33 -18 28 -15 -3 -21 1 -24 17 -2 11 -4 -1 -5 -29z"/>
<path d="M550 7876 c0 -7 -9 -16 -21 -19 -29 -8 -22 -51 9 -55 20 -3 22 1 22
42 0 25 -2 46 -5 46 -3 0 -5 -6 -5 -14z m0 -46 c0 -11 -7 -20 -15 -20 -8 0
-15 9 -15 20 0 11 7 20 15 20 8 0 15 -9 15 -20z"/>
<path d="M741 7843 c1 -26 3 -41 6 -32 2 10 13 19 24 22 29 8 22 51 -8 55 -21
3 -23 0 -22 -45z m39 17 c0 -11 -7 -20 -15 -20 -8 0 -15 9 -15 20 0 11 7 20
15 20 8 0 15 -9 15 -20z"/>
<path d="M938 7867 c-7 -19 6 -60 20 -63 7 -1 8 0 2 3 -12 6 -13 40 -1 45 5 2
3 8 -4 15 -10 9 -14 9 -17 0z"/>
<path d="M464 7851 c18 -7 18 -8 3 -14 -24 -9 -21 -37 3 -37 16 0 20 7 20 30
0 25 -4 30 -22 29 -21 0 -21 -1 -4 -8z m16 -31 c0 -5 -4 -10 -10 -10 -5 0 -10
5 -10 10 0 6 5 10 10 10 6 0 10 -4 10 -10z"/>
<path d="M584 7845 c-9 -23 3 -45 25 -45 20 0 37 32 26 50 -9 15 -45 12 -51
-5z m41 -15 c0 -8 -8 -16 -17 -18 -13 -2 -18 3 -18 18 0 15 5 20 18 18 9 -2
17 -10 17 -18z"/>
<path d="M651 7844 c0 -11 3 -14 6 -6 3 7 2 16 -1 19 -3 4 -6 -2 -5 -13z"/>
<path d="M680 7856 c0 -3 5 -16 11 -30 13 -27 29 -26 29 2 0 15 -2 15 -10 2
-8 -13 -10 -13 -10 2 0 9 -4 20 -10 23 -5 3 -10 4 -10 1z"/>
<path d="M812 7830 c0 -19 2 -27 5 -17 2 9 2 25 0 35 -3 9 -5 1 -5 -18z"/>
<path d="M841 7828 c2 -28 2 -29 6 -8 3 14 10 28 17 32 7 5 5 8 -6 8 -14 0
-18 -8 -17 -32z"/>
<path d="M893 7853 c18 -5 18 -5 0 -19 -16 -13 -16 -13 0 -8 9 3 17 1 17 -4 0
-6 -8 -13 -17 -15 -14 -4 -12 -5 5 -6 18 -1 22 4 22 29 0 25 -4 30 -22 29 -19
-1 -19 -2 -5 -6z"/>
<path d="M984 7846 c-9 -23 3 -46 23 -45 17 1 17 2 1 6 -25 6 -22 23 3 23 12
0 19 5 17 13 -7 18 -37 21 -44 3z m33 -2 c-3 -3 -12 -4 -19 -1 -8 3 -5 6 6 6
11 1 17 -2 13 -5z"/>
<path d="M9083 7843 c15 -2 39 -2 55 0 15 2 2 4 -28 4 -30 0 -43 -2 -27 -4z"/>
<path d="M667 7823 c-4 -3 -7 -11 -7 -17 0 -6 5 -5 12 2 6 6 9 14 7 17 -3 3
-9 2 -12 -2z"/>
<path d="M9120 7580 c0 -5 -9 -10 -20 -10 -11 0 -20 -4 -20 -10 0 -5 -9 -10
-20 -10 -11 0 -20 -4 -20 -10 0 -5 -7 -10 -15 -10 -20 0 -105 -85 -105 -104 0
-8 6 -16 13 -19 7 -2 8 -8 3 -13 -5 -5 -11 -4 -13 4 -3 6 -9 12 -14 12 -14 0
-10 -30 6 -47 14 -14 18 -13 34 6 10 12 26 21 35 21 9 0 16 5 16 10 0 6 9 10
20 10 11 0 20 5 20 10 0 6 14 10 30 10 17 0 30 5 30 10 0 6 9 10 20 10 13 0
20 -7 20 -18 0 -10 -9 -24 -20 -32 -14 -10 -20 -26 -20 -52 0 -21 -4 -38 -10
-38 -17 0 -12 -149 5 -166 13 -14 17 -14 30 0 8 8 15 22 15 30 0 9 5 16 10 16
6 0 10 9 10 20 0 11 5 20 10 20 6 0 10 9 10 20 0 11 5 20 10 20 6 0 10 -9 10
-20 0 -11 -4 -20 -10 -20 -5 0 -10 -22 -10 -50 0 -27 -4 -50 -10 -50 -6 0 -10
-47 -10 -120 0 -73 4 -120 10 -120 6 0 10 -27 10 -60 0 -33 4 -60 10 -60 6 0
10 -11 10 -25 0 -14 11 -37 25 -50 21 -22 33 -25 90 -25 37 0 65 4 65 10 0 6
5 10 10 10 6 0 10 -20 10 -45 0 -25 5 -45 10 -45 6 0 10 26 10 59 0 51 -3 61
-20 66 -11 3 -20 15 -20 26 0 10 -4 19 -10 19 -5 0 -10 14 -10 30 0 17 -4 30
-10 30 -5 0 -10 14 -10 30 0 17 -4 30 -10 30 -5 0 -10 14 -10 30 0 17 -4 30
-10 30 -6 0 -10 60 -10 160 0 100 4 160 10 160 6 0 10 21 10 46 0 55 21 84 45
60 8 -8 15 -29 15 -46 0 -20 9 -40 25 -56 l25 -25 25 25 c25 25 36 96 15 96
-5 0 -10 9 -10 19 0 11 -6 21 -12 24 -8 2 -9 8 -4 13 5 5 11 4 13 -3 3 -7 11
-13 19 -13 24 0 59 -43 56 -67 -2 -13 -8 -23 -13 -23 -5 0 -9 -9 -9 -20 0 -11
-4 -20 -10 -20 -16 0 -12 -90 5 -106 13 -13 18 -12 40 10 14 14 25 32 25 41 0
8 9 15 20 15 11 0 20 4 20 8 0 5 12 15 28 23 15 8 30 18 34 24 4 5 10 6 14 2
4 -4 -3 -15 -14 -26 -31 -26 -29 -75 3 -107 l25 -25 25 25 c16 16 25 36 25 56
0 17 7 38 15 46 24 24 45 -5 45 -60 0 -25 5 -46 10 -46 6 0 10 -50 10 -130 0
-80 -4 -130 -10 -130 -5 0 -10 -13 -10 -30 0 -16 -4 -30 -10 -30 -5 0 -10 -9
-10 -20 0 -11 -4 -20 -10 -20 -5 0 -10 -13 -10 -29 0 -16 -7 -36 -15 -45 -17
-17 -21 -126 -5 -126 6 0 10 14 10 30 0 30 1 30 55 30 30 0 55 5 55 10 0 6 9
10 20 10 16 0 20 7 20 30 0 17 5 30 10 30 6 0 10 23 10 50 0 28 5 50 10 50 6
0 10 40 10 100 0 60 -4 100 -10 100 -5 0 -10 22 -10 49 0 30 -5 51 -12 54 -8
2 -9 8 -4 13 5 5 11 4 13 -3 7 -20 23 -15 23 7 0 11 -4 20 -10 20 -5 0 -10 13
-10 29 0 16 -6 32 -12 35 -10 5 -10 7 0 12 6 3 12 12 12 20 0 17 -89 109 -97
100 -3 -3 13 -23 36 -45 42 -40 53 -71 26 -71 -9 0 -36 21 -62 46 -35 35 -42
48 -32 55 7 4 10 12 5 16 -5 4 -11 2 -13 -4 -3 -8 -23 -13 -50 -13 -34 0 -50
-5 -64 -21 -18 -21 -18 -21 -16 20 1 26 6 41 14 41 7 0 13 5 13 10 0 6 18 10
40 10 22 0 40 -4 40 -10 0 -5 18 -10 40 -10 22 0 40 5 40 10 0 6 30 10 70 10
40 0 70 -4 70 -10 0 -5 9 -10 20 -10 13 0 20 -7 20 -20 0 -11 5 -20 10 -20 6
0 10 5 10 10 0 6 9 10 20 10 22 0 27 -16 8 -23 -8 -2 -9 -8 -4 -13 5 -5 11 -4
13 4 7 19 23 14 23 -8 0 -13 7 -20 20 -20 11 0 20 -4 20 -10 0 -5 -9 -10 -20
-10 -11 0 -20 5 -20 10 0 6 -9 10 -20 10 -11 0 -20 5 -20 10 0 6 -13 10 -30
10 -16 0 -30 5 -30 10 0 6 -18 10 -40 10 -22 0 -40 -4 -40 -10 0 -5 5 -10 10
-10 6 0 10 -13 10 -29 0 -16 6 -32 13 -35 10 -5 10 -7 0 -12 -15 -7 -18 -64
-3 -64 6 0 10 -13 10 -30 0 -16 5 -30 10 -30 6 0 10 14 10 30 0 17 5 30 10 30
16 0 11 -50 -7 -68 -12 -12 -18 -13 -21 -4 -6 19 -22 14 -22 -8 0 -11 5 -20
10 -20 6 0 10 -7 10 -16 0 -8 7 -22 15 -30 13 -14 17 -14 30 0 17 17 22 146 5
146 -5 0 -10 13 -10 28 0 16 -8 34 -20 42 -11 8 -20 22 -20 32 0 11 7 18 20
18 11 0 20 -4 20 -10 0 -5 14 -10 30 -10 17 0 30 -4 30 -10 0 -5 8 -10 18 -10
10 0 24 -9 32 -20 8 -11 22 -20 32 -20 27 0 25 71 -2 90 -11 8 -20 22 -20 32
0 11 -7 18 -20 18 -11 0 -20 5 -20 10 0 6 -13 10 -30 10 -16 0 -30 5 -30 10 0
6 -9 10 -20 10 -11 0 -20 5 -20 10 0 6 -30 10 -70 10 -40 0 -70 -4 -70 -10 0
-5 -18 -10 -40 -10 -22 0 -40 5 -40 10 0 6 -18 10 -40 10 -22 0 -40 -4 -40
-10 0 -5 -11 -10 -25 -10 -16 0 -25 6 -25 15 0 8 -4 15 -10 15 -5 0 -10 7 -10
15 0 9 -11 27 -25 40 -13 14 -31 25 -40 25 -8 0 -15 5 -15 10 0 6 -9 10 -20
10 -11 0 -20 5 -20 10 0 6 -13 10 -30 10 -16 0 -30 5 -30 10 0 6 -18 10 -40
10 -22 0 -40 -4 -40 -10 0 -5 -18 -10 -40 -10 -22 0 -40 5 -40 10 0 6 -33 10
-80 10 -47 0 -80 -4 -80 -10z m160 -20 c0 -5 18 -10 40 -10 22 0 40 5 40 10 0
6 18 10 40 10 22 0 40 -4 40 -10 0 -5 14 -10 30 -10 17 0 30 -4 30 -10 0 -5 9
-10 20 -10 11 0 20 -4 20 -10 0 -5 7 -10 16 -10 20 0 44 -24 44 -44 0 -9 5
-16 10 -16 6 0 10 -9 10 -20 0 -11 5 -20 10 -20 6 0 10 -9 10 -20 0 -11 -4
-20 -10 -20 -5 0 -10 -9 -10 -20 0 -11 -4 -20 -10 -20 -5 0 -10 7 -10 16 0 18
-24 44 -40 44 -7 0 -25 14 -40 30 -15 17 -35 30 -44 30 -9 0 -16 5 -16 10 0 6
-9 10 -20 10 -11 0 -20 5 -20 10 0 6 -17 10 -38 10 -26 0 -42 -6 -52 -20 -8
-11 -20 -20 -27 -20 -25 0 -123 -108 -123 -135 0 -14 -4 -25 -10 -25 -5 0 -10
-9 -10 -20 0 -11 -4 -20 -10 -20 -5 0 -10 -9 -10 -20 0 -11 -4 -20 -10 -20 -5
0 -10 9 -10 20 0 11 -4 20 -10 20 -5 0 -10 14 -10 30 0 17 5 30 10 30 6 0 10
17 10 38 0 26 6 42 20 52 12 8 20 26 20 42 0 15 5 28 10 28 6 0 10 5 10 10 0
6 -18 10 -40 10 -22 0 -40 -4 -40 -10 0 -5 -13 -10 -30 -10 -16 0 -30 -4 -30
-10 0 -5 -9 -10 -19 -10 -11 0 -22 -6 -24 -12 -4 -10 -8 -9 -16 2 -10 13 -12
13 -20 0 -6 -8 -13 -11 -16 -8 -10 9 61 78 80 78 8 0 15 5 15 10 0 6 9 10 20
10 11 0 20 5 20 10 0 6 9 10 20 10 11 0 20 5 20 10 0 6 33 10 80 10 47 0 80
-4 80 -10z m295 -306 c-40 -39 -45 -41 -45 -15 0 11 -6 22 -12 25 -10 5 -10 7
0 12 6 3 12 14 12 25 0 10 5 19 10 19 6 0 10 7 10 15 0 10 10 4 29 -16 l30
-31 -34 -34z m415 -24 c0 -16 -4 -30 -10 -30 -5 0 -10 14 -10 30 0 17 5 30 10
30 6 0 10 -13 10 -30z m-710 -10 c0 -5 -4 -10 -10 -10 -5 0 -10 5 -10 10 0 6
5 10 10 10 6 0 10 -4 10 -10z m0 -100 c0 -16 -4 -30 -10 -30 -5 0 -10 14 -10
30 0 17 5 30 10 30 6 0 10 -13 10 -30z m0 -90 c0 -22 -4 -40 -10 -40 -5 0 -10
18 -10 40 0 22 5 40 10 40 6 0 10 -18 10 -40z m590 0 c0 -5 -4 -10 -10 -10 -5
0 -10 5 -10 10 0 6 5 10 10 10 6 0 10 -4 10 -10z m-590 -70 c0 -5 -4 -10 -10
-10 -5 0 -10 5 -10 10 0 6 5 10 10 10 6 0 10 -4 10 -10z m590 -30 c0 -16 -4
-30 -10 -30 -5 0 -10 14 -10 30 0 17 5 30 10 30 6 0 10 -13 10 -30z m-570 -20
c0 -11 5 -20 10 -20 6 0 10 -9 10 -20 0 -11 -4 -20 -10 -20 -5 0 -10 9 -10 20
0 11 -4 20 -10 20 -5 0 -10 9 -10 20 0 11 5 20 10 20 6 0 10 -9 10 -20z m550
-50 c0 -11 -4 -20 -10 -20 -5 0 -10 -9 -10 -20 0 -11 -4 -20 -10 -20 -5 0 -10
9 -10 20 0 11 5 20 10 20 6 0 10 9 10 20 0 11 5 20 10 20 6 0 10 -9 10 -20z
m-510 -69 c0 -11 6 -21 13 -24 6 -2 9 -8 5 -12 -9 -10 -38 19 -38 39 0 9 5 16
10 16 6 0 10 -9 10 -19z m470 -27 c0 -20 -29 -49 -38 -39 -4 4 -1 10 6 12 6 3
12 13 12 24 0 10 5 19 10 19 6 0 10 -7 10 -16z"/>
<path d="M9160 7540 c0 -5 -18 -10 -40 -10 -22 0 -40 -4 -40 -10 0 -5 -9 -10
-20 -10 -11 0 -20 -4 -20 -10 0 -5 -7 -10 -16 -10 -20 0 -49 -29 -39 -38 4 -4
10 -1 12 6 3 6 13 12 24 12 10 0 19 5 19 10 0 6 9 10 20 10 11 0 20 5 20 10 0
6 18 10 40 10 22 0 40 5 40 10 0 6 9 10 20 10 11 0 20 -4 20 -10 0 -5 9 -10
20 -10 11 0 20 5 20 10 0 6 -9 10 -20 10 -11 0 -20 5 -20 10 0 6 -9 10 -20 10
-11 0 -20 -4 -20 -10z"/>
<path d="M9331 7514 c-7 -8 -10 -18 -6 -22 4 -4 10 -1 12 6 6 15 123 17 123 2
0 -5 9 -10 20 -10 11 0 20 -4 20 -10 0 -5 7 -10 15 -10 20 0 85 -65 85 -85 0
-8 5 -15 10 -15 23 0 7 33 -35 75 -24 25 -51 45 -60 45 -8 0 -15 5 -15 10 0 6
-9 10 -20 10 -11 0 -20 5 -20 10 0 17 -113 11 -129 -6z"/>
<path d="M9223 7465 c-24 -25 -43 -50 -43 -58 0 -7 -9 -19 -20 -27 -12 -8 -20
-26 -20 -42 0 -15 -4 -28 -10 -28 -5 0 -10 -13 -10 -30 0 -16 5 -30 10 -30 6
0 10 14 10 30 0 17 5 30 10 30 6 0 10 13 10 28 0 16 8 34 20 42 11 8 20 20 20
28 0 18 66 82 85 82 8 0 15 5 15 10 0 23 -38 6 -77 -35z"/>
<path d="M9550 7310 c0 -5 5 -10 10 -10 6 0 10 5 10 10 0 6 -4 10 -10 10 -5 0
-10 -4 -10 -10z"/>
<path d="M9530 7270 c0 -5 5 -10 10 -10 6 0 10 5 10 10 0 6 -4 10 -10 10 -5 0
-10 -4 -10 -10z"/>
<path d="M9910 7390 c0 -5 9 -10 20 -10 11 0 20 5 20 10 0 6 -9 10 -20 10 -11
0 -20 -4 -20 -10z"/>
<path d="M2430 7183 c-36 -15 -54 -56 -27 -66 7 -2 8 -8 3 -13 -5 -5 -11 -4
-13 4 -6 17 -23 15 -23 -3 0 -8 -4 -15 -10 -15 -8 0 -55 -44 -87 -84 -7 -8
-13 -34 -13 -56 0 -43 4 -50 57 -103 53 -53 60 -57 108 -57 25 0 52 6 61 13
82 69 94 88 94 147 0 23 -5 51 -12 63 -13 26 -66 77 -79 77 -5 0 -9 7 -9 15 0
8 -5 15 -11 15 -7 0 -9 12 -5 35 7 36 1 41 -34 28z m30 -13 c0 -5 -4 -10 -10
-10 -5 0 -10 5 -10 10 0 6 5 10 10 10 6 0 10 -4 10 -10z m-67 -147 c-7 -2 -21
-2 -30 0 -10 3 -4 5 12 5 17 0 24 -2 18 -5z m-13 -23 c0 -5 -8 -10 -17 -10
-15 0 -16 -2 -3 -10 12 -8 10 -10 -8 -10 -13 0 -20 4 -17 10 3 6 1 10 -4 10
-6 0 -11 5 -11 10 0 6 14 10 30 10 17 0 30 -4 30 -10z"/>
<path d="M6680 7083 c-36 -15 -54 -56 -27 -66 7 -2 8 -8 3 -13 -5 -5 -11 -4
-13 4 -6 17 -23 15 -23 -3 0 -8 -4 -15 -10 -15 -8 0 -55 -44 -87 -84 -7 -8
-13 -34 -13 -56 0 -43 4 -50 57 -103 53 -53 60 -57 108 -57 25 0 52 6 61 13
82 69 94 88 94 147 0 23 -5 51 -12 63 -13 26 -66 77 -79 77 -5 0 -9 7 -9 15 0
8 -5 15 -11 15 -7 0 -9 12 -5 35 7 36 1 41 -34 28z m30 -13 c0 -5 -4 -10 -10
-10 -5 0 -10 5 -10 10 0 6 5 10 10 10 6 0 10 -4 10 -10z m-67 -147 c-7 -2 -21
-2 -30 0 -10 3 -4 5 12 5 17 0 24 -2 18 -5z m-13 -23 c0 -5 -8 -10 -17 -10
-15 0 -16 -2 -3 -10 12 -8 10 -10 -8 -10 -13 0 -20 4 -17 10 3 6 1 10 -4 10
-6 0 -11 5 -11 10 0 6 14 10 30 10 17 0 30 -4 30 -10z"/>
<path d="M8680 7083 c-36 -15 -54 -56 -27 -66 7 -2 8 -8 3 -13 -5 -5 -11 -4
-13 4 -6 17 -23 15 -23 -3 0 -8 -4 -15 -10 -15 -8 0 -55 -44 -87 -84 -7 -8
-13 -34 -13 -56 0 -43 4 -50 57 -103 53 -53 60 -57 108 -57 25 0 52 6 61 13
82 69 94 88 94 147 0 23 -5 51 -12 63 -13 26 -66 77 -79 77 -5 0 -9 7 -9 15 0
8 -5 15 -11 15 -7 0 -9 12 -5 35 7 36 1 41 -34 28z m30 -13 c0 -5 -4 -10 -10
-10 -5 0 -10 5 -10 10 0 6 5 10 10 10 6 0 10 -4 10 -10z m-67 -147 c-7 -2 -21
-2 -30 0 -10 3 -4 5 12 5 17 0 24 -2 18 -5z m-13 -23 c0 -5 -8 -10 -17 -10
-15 0 -16 -2 -3 -10 12 -8 10 -10 -8 -10 -13 0 -20 4 -17 10 3 6 1 10 -4 10
-6 0 -11 5 -11 10 0 6 14 10 30 10 17 0 30 -4 30 -10z"/>
<path d="M9500 6890 c0 -5 -16 -10 -36 -10 -19 0 -42 -6 -50 -14 -16 -17 -20
-106 -4 -106 6 0 10 9 10 20 0 22 15 27 24 8 5 -10 7 -10 12 0 6 12 44 18 44
6 0 -3 -14 -19 -31 -35 -18 -16 -29 -32 -26 -36 4 -3 20 8 36 26 30 32 74 42
85 19 5 -10 7 -10 12 0 9 19 24 14 24 -8 0 -11 5 -20 10 -20 6 0 10 5 10 10 0
6 9 10 20 10 11 0 20 5 20 10 0 6 -4 10 -10 10 -5 0 -10 5 -10 10 0 6 23 10
50 10 28 0 50 -4 50 -10 0 -5 5 -10 10 -10 15 0 12 70 -4 86 -8 8 -31 14 -50
14 -20 0 -36 5 -36 10 0 6 -33 10 -80 10 -47 0 -80 -4 -80 -10z m20 -30 c0
-11 5 -20 10 -20 6 0 10 -4 10 -10 0 -6 -27 -10 -60 -10 -53 0 -60 2 -60 20 0
11 5 20 10 20 6 0 10 -4 10 -10 0 -5 14 -10 30 -10 23 0 30 4 30 20 0 11 5 20
10 20 6 0 10 -9 10 -20z m140 0 c0 -16 7 -20 30 -20 17 0 30 5 30 10 0 6 5 10
10 10 6 0 10 -9 10 -20 0 -18 -7 -20 -60 -20 -33 0 -60 4 -60 10 0 6 5 10 10
10 6 0 10 9 10 20 0 11 5 20 10 20 6 0 10 -9 10 -20z"/>
<path d="M9440 6650 c0 -49 1 -50 30 -50 29 0 30 1 30 50 0 49 -1 50 -30 50
-29 0 -30 -1 -30 -50z"/>
<path d="M9520 6650 l0 -50 60 0 60 0 0 50 0 50 -60 0 -60 0 0 -50z"/>
<path d="M9660 6650 c0 -49 1 -50 30 -50 29 0 30 1 30 50 0 49 -1 50 -30 50
-29 0 -30 -1 -30 -50z"/>
<path d="M3180 6683 c-36 -15 -54 -56 -27 -66 7 -2 8 -8 3 -13 -5 -5 -11 -4
-13 4 -6 17 -23 15 -23 -3 0 -8 -4 -15 -10 -15 -8 0 -55 -44 -87 -84 -7 -8
-13 -34 -13 -56 0 -43 4 -50 57 -103 53 -53 60 -57 108 -57 25 0 52 6 61 13
82 69 94 88 94 147 0 23 -5 51 -12 63 -13 26 -66 77 -79 77 -5 0 -9 7 -9 15 0
8 -5 15 -11 15 -7 0 -9 12 -5 35 7 36 1 41 -34 28z m30 -13 c0 -5 -4 -10 -10
-10 -5 0 -10 5 -10 10 0 6 5 10 10 10 6 0 10 -4 10 -10z m-67 -147 c-7 -2 -21
-2 -30 0 -10 3 -4 5 12 5 17 0 24 -2 18 -5z m-13 -23 c0 -5 -8 -10 -17 -10
-15 0 -16 -2 -3 -10 12 -8 10 -10 -8 -10 -13 0 -20 4 -17 10 3 6 1 10 -4 10
-6 0 -11 5 -11 10 0 6 14 10 30 10 17 0 30 -4 30 -10z"/>
<path d="M6507 6402 c-12 -13 -17 -37 -17 -75 0 -57 0 -57 -30 -57 -25 0 -30
-4 -30 -24 0 -40 11 -56 36 -56 33 0 30 -13 -6 -27 -27 -10 -30 -15 -30 -57 0
-25 -4 -46 -10 -46 -16 0 -11 -37 6 -44 9 -4 14 -13 10 -21 -3 -8 0 -15 7 -15
20 0 37 52 30 93 -4 24 -2 37 6 37 7 0 11 -33 11 -101 0 -85 3 -104 18 -115
26 -21 42 -16 42 11 0 24 3 25 60 25 46 0 60 -3 60 -15 0 -14 29 -35 49 -35 7
0 11 30 11 79 0 75 1 79 21 74 28 -8 39 11 39 69 0 50 -16 68 -59 68 -12 0
-21 5 -21 10 0 6 9 10 21 10 31 0 52 26 45 55 -5 20 -13 25 -36 25 l-30 0 0
65 c0 79 -8 85 -113 85 -59 0 -77 -4 -90 -18z m60 -9 c-9 -2 -15 -9 -12 -14 4
-5 -4 -9 -17 -8 -13 0 -17 3 -10 6 6 2 10 9 6 14 -3 5 7 8 23 8 17 -1 21 -3
10 -6z m83 -78 c0 -21 -5 -35 -12 -36 -7 -1 -31 -2 -53 -3 -39 -1 -40 0 -43
37 l-3 37 55 0 56 0 0 -35z m13 -124 c62 -2 44 -41 -19 -41 -15 0 -24 6 -24
15 0 8 -4 15 -10 15 -5 0 -10 -9 -10 -20 0 -16 -7 -20 -30 -20 -25 0 -30 4
-30 25 0 14 -4 25 -10 25 -5 0 -10 -7 -10 -17 0 -9 -3 -14 -6 -10 -4 3 -4 12
-1 19 3 9 22 13 58 11 30 0 71 -2 92 -2z m-139 -56 c3 -8 15 -15 26 -15 18 0
20 -6 20 -60 0 -33 -3 -60 -7 -60 -5 0 -18 -3 -30 -6 -22 -6 -23 -4 -23 61 0
63 -1 66 -22 63 -17 -2 -24 -11 -26 -30 -5 -45 -22 -32 -22 17 l0 45 39 0 c25
0 41 -5 45 -15z m256 -32 c0 -46 -14 -51 -22 -8 -2 13 -12 21 -30 23 -22 3
-26 0 -21 -17 5 -18 1 -21 -31 -21 -29 0 -36 -4 -36 -20 0 -16 7 -20 35 -20
32 0 35 -3 35 -29 0 -30 4 -30 -82 -16 l-38 6 0 58 c0 50 3 59 23 69 27 14 57
19 120 21 l47 1 0 -47z m-30 -2 c0 -6 -4 -13 -10 -16 -5 -3 -10 1 -10 9 0 9 5
16 10 16 6 0 10 -4 10 -9z m-35 -41 c-3 -5 -19 -10 -36 -10 -16 0 -29 5 -29
10 0 6 16 10 36 10 21 0 33 -4 29 -10z m-114 -77 c-11 -5 -11 -7 0 -14 10 -6
4 -9 -18 -9 -23 0 -33 5 -33 15 0 10 10 15 33 14 17 0 26 -3 18 -6z"/>
<path d="M6550 6315 c0 -8 5 -15 10 -15 6 0 10 7 10 15 0 8 -4 15 -10 15 -5 0
-10 -7 -10 -15z"/>
<path d="M6600 6315 c0 -8 7 -15 15 -15 8 0 15 7 15 15 0 8 -7 15 -15 15 -8 0
-15 -7 -15 -15z"/>
<path d="M6527 6103 c-13 -13 -7 -33 11 -33 14 0 15 2 2 10 -13 9 -13 11 0 20
8 5 10 10 4 10 -6 0 -14 -3 -17 -7z"/>
<path d="M6520 6043 c0 -10 4 -14 8 -8 4 6 11 13 16 18 5 4 2 7 -7 7 -10 0
-17 -8 -17 -17z"/>
<path d="M6607 6103 c-13 -13 -7 -33 11 -33 14 0 15 2 2 10 -13 9 -13 11 0 20
8 5 10 10 4 10 -6 0 -14 -3 -17 -7z"/>
<path d="M6600 6043 c0 -10 4 -14 8 -8 4 6 11 13 16 18 5 4 2 7 -7 7 -10 0
-17 -8 -17 -17z"/>
<path d="M4910 6373 c-36 -15 -54 -56 -27 -66 7 -2 8 -8 3 -13 -5 -5 -11 -4
-13 4 -6 17 -23 15 -23 -3 0 -8 -4 -15 -10 -15 -8 0 -55 -44 -87 -84 -7 -8
-13 -34 -13 -56 0 -43 4 -50 57 -103 53 -53 60 -57 108 -57 25 0 52 6 61 13
82 69 94 88 94 147 0 23 -5 51 -12 63 -13 26 -66 77 -79 77 -5 0 -9 7 -9 15 0
8 -5 15 -11 15 -7 0 -9 12 -5 35 7 36 1 41 -34 28z m30 -13 c0 -5 -4 -10 -10
-10 -5 0 -10 5 -10 10 0 6 5 10 10 10 6 0 10 -4 10 -10z m-67 -147 c-7 -2 -21
-2 -30 0 -10 3 -4 5 12 5 17 0 24 -2 18 -5z m-13 -23 c0 -5 -8 -10 -17 -10
-15 0 -16 -2 -3 -10 12 -8 10 -10 -8 -10 -13 0 -20 4 -17 10 3 6 1 10 -4 10
-6 0 -11 5 -11 10 0 6 14 10 30 10 17 0 30 -4 30 -10z"/>
<path d="M1680 6183 c-36 -15 -54 -56 -27 -66 7 -2 8 -8 3 -13 -5 -5 -11 -4
-13 4 -6 17 -23 15 -23 -3 0 -8 -4 -15 -10 -15 -8 0 -55 -44 -87 -84 -7 -8
-13 -34 -13 -56 0 -43 4 -50 57 -103 53 -53 60 -57 108 -57 25 0 52 6 61 13
82 69 94 88 94 147 0 23 -5 51 -12 63 -13 26 -66 77 -79 77 -5 0 -9 7 -9 15 0
8 -5 15 -11 15 -7 0 -9 12 -5 35 7 36 1 41 -34 28z m30 -13 c0 -5 -4 -10 -10
-10 -5 0 -10 5 -10 10 0 6 5 10 10 10 6 0 10 -4 10 -10z m-67 -147 c-7 -2 -21
-2 -30 0 -10 3 -4 5 12 5 17 0 24 -2 18 -5z m-13 -23 c0 -5 -8 -10 -17 -10
-15 0 -16 -2 -3 -10 12 -8 10 -10 -8 -10 -13 0 -20 4 -17 10 3 6 1 10 -4 10
-6 0 -11 5 -11 10 0 6 14 10 30 10 17 0 30 -4 30 -10z"/>
<path d="M5618 6039 c-14 -8 -18 -24 -18 -74 l0 -65 -30 0 c-23 0 -31 -5 -36
-25 -7 -29 14 -55 45 -55 12 0 21 -4 21 -10 0 -5 -9 -10 -21 -10 -43 0 -59
-18 -59 -68 0 -58 11 -77 39 -69 20 5 21 1 21 -74 0 -49 4 -79 11 -79 20 0 49
21 49 35 0 12 14 15 60 15 57 0 60 -1 60 -25 0 -27 16 -32 43 -11 14 11 17 30
17 115 0 68 4 101 11 101 8 0 10 -13 6 -37 -7 -41 10 -93 30 -93 7 0 10 7 7
15 -4 8 1 17 10 21 17 7 22 44 6 44 -5 0 -10 21 -10 46 0 42 -3 47 -30 57 -36
14 -39 27 -6 27 25 0 36 16 36 56 0 20 -5 24 -30 24 -30 0 -30 0 -30 58 0 81
-14 92 -111 92 -41 0 -82 -5 -91 -11z m158 -18 c-4 -5 0 -12 6 -14 7 -3 3 -6
-10 -6 -13 -1 -21 3 -17 8 3 5 -3 12 -12 14 -11 3 -7 5 10 6 16 0 26 -3 23 -8z
m-8 -78 c-3 -37 -4 -38 -43 -37 -22 1 -46 2 -52 3 -8 1 -13 15 -13 36 l0 35
56 0 55 0 -3 -37z m29 -139 c2 -16 1 -16 -3 -1 -8 26 -24 21 -24 -8 0 -21 -5
-25 -30 -25 -23 0 -30 4 -30 20 0 11 -4 20 -10 20 -5 0 -10 -7 -10 -15 0 -9
-9 -15 -24 -15 -34 0 -56 10 -56 25 0 15 43 21 135 19 42 0 50 -4 52 -20z
m-97 -46 c16 -10 20 -24 20 -70 l0 -57 -37 -6 c-87 -14 -83 -14 -83 16 0 26 3
29 35 29 28 0 35 4 35 20 0 16 -7 20 -36 20 -32 0 -36 3 -31 21 5 17 1 20 -21
17 -18 -2 -28 -10 -30 -23 -8 -44 -22 -37 -22 9 l0 49 75 -6 c41 -4 84 -12 95
-19z m170 -23 c0 -49 -17 -62 -22 -17 -2 19 -9 28 -25 30 -22 3 -23 0 -23 -63
0 -65 -1 -67 -22 -61 -13 3 -26 6 -30 6 -5 0 -8 27 -8 60 0 54 2 60 20 60 11
0 23 7 26 15 4 10 20 15 45 15 l39 0 0 -45z m-290 -11 c0 -8 -4 -12 -10 -9 -5
3 -10 10 -10 16 0 5 5 9 10 9 6 0 10 -7 10 -16z m80 -34 c0 -5 -13 -10 -29
-10 -17 0 -33 5 -36 10 -4 6 8 10 29 10 20 0 36 -4 36 -10z m100 -85 c0 -10
-10 -15 -32 -14 -18 0 -27 3 -19 6 11 5 11 7 0 14 -10 6 -4 9 19 9 22 0 32 -5
32 -15z"/>
<path d="M5680 5945 c0 -8 7 -15 15 -15 8 0 15 7 15 15 0 8 -7 15 -15 15 -8 0
-15 -7 -15 -15z"/>
<path d="M5740 5945 c0 -8 5 -15 10 -15 6 0 10 7 10 15 0 8 -4 15 -10 15 -5 0
-10 -7 -10 -15z"/>
<path d="M5690 5731 c13 -10 13 -12 0 -21 -13 -8 -12 -10 3 -10 22 0 19 31 -3
37 -13 4 -13 3 0 -6z"/>
<path d="M5686 5683 c5 -5 12 -12 16 -18 4 -6 8 -2 8 8 0 9 -7 17 -17 17 -9 0
-12 -3 -7 -7z"/>
<path d="M5770 5731 c13 -10 13 -12 0 -21 -13 -8 -12 -10 3 -10 22 0 19 31 -3
37 -13 4 -13 3 0 -6z"/>
<path d="M5766 5683 c5 -5 12 -12 16 -18 4 -6 8 -2 8 8 0 9 -7 17 -17 17 -9 0
-12 -3 -7 -7z"/>
<path d="M6430 5960 c0 -5 9 -10 20 -10 11 0 20 5 20 10 0 6 -9 10 -20 10 -11
0 -20 -4 -20 -10z"/>
<path d="M10030 5933 c-36 -15 -54 -56 -27 -66 7 -2 8 -8 3 -13 -5 -5 -11 -4
-13 4 -6 17 -23 15 -23 -3 0 -8 -4 -15 -10 -15 -8 0 -55 -44 -87 -84 -7 -8
-13 -34 -13 -56 0 -43 4 -50 57 -103 53 -53 60 -57 108 -57 25 0 52 6 61 13
82 69 94 88 94 147 0 23 -5 51 -12 63 -13 26 -66 77 -79 77 -5 0 -9 7 -9 15 0
8 -5 15 -11 15 -7 0 -9 12 -5 35 7 36 1 41 -34 28z m30 -13 c0 -5 -4 -10 -10
-10 -5 0 -10 5 -10 10 0 6 5 10 10 10 6 0 10 -4 10 -10z m-67 -147 c-7 -2 -21
-2 -30 0 -10 3 -4 5 12 5 17 0 24 -2 18 -5z m-13 -23 c0 -5 -8 -10 -17 -10
-15 0 -16 -2 -3 -10 12 -8 10 -10 -8 -10 -13 0 -20 4 -17 10 3 6 1 10 -4 10
-6 0 -11 5 -11 10 0 6 14 10 30 10 17 0 30 -4 30 -10z"/>
<path d="M3890 5613 c-36 -15 -54 -56 -27 -66 7 -2 8 -8 3 -13 -5 -5 -11 -4
-13 4 -6 17 -23 15 -23 -3 0 -8 -4 -15 -10 -15 -8 0 -55 -44 -87 -84 -7 -8
-13 -34 -13 -56 0 -43 4 -50 57 -103 53 -53 60 -57 108 -57 25 0 52 6 61 13
82 69 94 88 94 147 0 23 -5 51 -12 63 -13 26 -66 77 -79 77 -5 0 -9 7 -9 15 0
8 -5 15 -11 15 -7 0 -9 12 -5 35 7 36 1 41 -34 28z m30 -13 c0 -5 -4 -10 -10
-10 -5 0 -10 5 -10 10 0 6 5 10 10 10 6 0 10 -4 10 -10z m-67 -147 c-7 -2 -21
-2 -30 0 -10 3 -4 5 12 5 17 0 24 -2 18 -5z m-13 -23 c0 -5 -8 -10 -17 -10
-15 0 -16 -2 -3 -10 12 -8 10 -10 -8 -10 -13 0 -20 4 -17 10 3 6 1 10 -4 10
-6 0 -11 5 -11 10 0 6 14 10 30 10 17 0 30 -4 30 -10z"/>
<path d="M5840 5590 c0 -5 9 -10 20 -10 11 0 20 5 20 10 0 6 -9 10 -20 10 -11
0 -20 -4 -20 -10z"/>
<path d="M6618 5439 c-14 -8 -18 -24 -18 -74 l0 -65 -30 0 c-23 0 -31 -5 -36
-25 -7 -29 14 -55 45 -55 12 0 21 -4 21 -10 0 -5 -9 -10 -21 -10 -43 0 -59
-18 -59 -68 0 -58 11 -77 39 -69 20 5 21 1 21 -74 0 -49 4 -79 11 -79 20 0 49
21 49 35 0 12 14 15 60 15 57 0 60 -1 60 -25 0 -27 16 -32 43 -11 14 11 17 30
17 115 0 68 4 101 11 101 8 0 10 -13 6 -37 -7 -41 10 -93 30 -93 7 0 10 7 7
15 -4 8 1 17 10 21 17 7 22 44 6 44 -5 0 -10 21 -10 46 0 42 -3 47 -30 57 -36
14 -39 27 -6 27 25 0 36 16 36 56 0 20 -5 24 -30 24 -30 0 -30 0 -30 58 0 81
-14 92 -111 92 -41 0 -82 -5 -91 -11z m158 -18 c-4 -5 0 -12 6 -14 7 -3 3 -6
-10 -6 -13 -1 -21 3 -17 8 3 5 -3 12 -12 14 -11 3 -7 5 10 6 16 0 26 -3 23 -8z
m-8 -78 c-3 -37 -4 -38 -43 -37 -22 1 -46 2 -52 3 -8 1 -13 15 -13 36 l0 35
56 0 55 0 -3 -37z m29 -139 c2 -16 1 -16 -3 -1 -8 26 -24 21 -24 -8 0 -21 -5
-25 -30 -25 -23 0 -30 4 -30 20 0 11 -4 20 -10 20 -5 0 -10 -7 -10 -15 0 -9
-9 -15 -24 -15 -34 0 -56 10 -56 25 0 15 43 21 135 19 42 0 50 -4 52 -20z
m-97 -46 c16 -10 20 -24 20 -70 l0 -57 -37 -6 c-87 -14 -83 -14 -83 16 0 26 3
29 35 29 28 0 35 4 35 20 0 16 -7 20 -36 20 -32 0 -36 3 -31 21 5 17 1 20 -21
17 -18 -2 -28 -10 -30 -23 -8 -44 -22 -37 -22 9 l0 49 75 -6 c41 -4 84 -12 95
-19z m170 -23 c0 -49 -17 -62 -22 -17 -2 19 -9 28 -25 30 -22 3 -23 0 -23 -63
0 -65 -1 -67 -22 -61 -13 3 -26 6 -30 6 -5 0 -8 27 -8 60 0 54 2 60 20 60 11
0 23 7 26 15 4 10 20 15 45 15 l39 0 0 -45z m-290 -11 c0 -8 -4 -12 -10 -9 -5
3 -10 10 -10 16 0 5 5 9 10 9 6 0 10 -7 10 -16z m80 -34 c0 -5 -13 -10 -29
-10 -17 0 -33 5 -36 10 -4 6 8 10 29 10 20 0 36 -4 36 -10z m100 -85 c0 -10
-10 -15 -32 -14 -18 0 -27 3 -19 6 11 5 11 7 0 14 -10 6 -4 9 19 9 22 0 32 -5
32 -15z"/>
<path d="M6680 5345 c0 -8 7 -15 15 -15 8 0 15 7 15 15 0 8 -7 15 -15 15 -8 0
-15 -7 -15 -15z"/>
<path d="M6740 5345 c0 -8 5 -15 10 -15 6 0 10 7 10 15 0 8 -4 15 -10 15 -5 0
-10 -7 -10 -15z"/>
<path d="M6690 5131 c13 -10 13 -12 0 -21 -13 -8 -12 -10 3 -10 22 0 19 31 -3
37 -13 4 -13 3 0 -6z"/>
<path d="M6686 5083 c5 -5 12 -12 16 -18 4 -6 8 -2 8 8 0 9 -7 17 -17 17 -9 0
-12 -3 -7 -7z"/>
<path d="M6770 5131 c13 -10 13 -12 0 -21 -13 -8 -12 -10 3 -10 22 0 19 31 -3
37 -13 4 -13 3 0 -6z"/>
<path d="M6766 5083 c5 -5 12 -12 16 -18 4 -6 8 -2 8 8 0 9 -7 17 -17 17 -9 0
-12 -3 -7 -7z"/>
<path d="M1180 5183 c-36 -15 -54 -56 -27 -66 7 -2 8 -8 3 -13 -5 -5 -11 -4
-13 4 -6 17 -23 15 -23 -3 0 -8 -4 -15 -10 -15 -8 0 -55 -44 -87 -84 -7 -8
-13 -34 -13 -56 0 -43 4 -50 57 -103 53 -53 60 -57 108 -57 25 0 52 6 61 13
82 69 94 88 94 147 0 23 -5 51 -12 63 -13 26 -66 77 -79 77 -5 0 -9 7 -9 15 0
8 -5 15 -11 15 -7 0 -9 12 -5 35 7 36 1 41 -34 28z m30 -13 c0 -5 -4 -10 -10
-10 -5 0 -10 5 -10 10 0 6 5 10 10 10 6 0 10 -4 10 -10z m-67 -147 c-7 -2 -21
-2 -30 0 -10 3 -4 5 12 5 17 0 24 -2 18 -5z m-13 -23 c0 -5 -8 -10 -17 -10
-15 0 -16 -2 -3 -10 12 -8 10 -10 -8 -10 -13 0 -20 4 -17 10 3 6 1 10 -4 10
-6 0 -11 5 -11 10 0 6 14 10 30 10 17 0 30 -4 30 -10z"/>
<path d="M8165 5160 c3 -5 10 -10 16 -10 5 0 9 5 9 10 0 6 -7 10 -16 10 -8 0
-12 -4 -9 -10z"/>
<path d="M8255 5135 c0 -19 3 -35 8 -35 13 0 8 -70 -5 -71 -81 -7 -93 -4 -96
24 -3 21 -9 27 -28 27 -20 0 -24 -5 -24 -30 0 -27 -3 -30 -30 -30 -25 0 -30
-4 -30 -24 0 -37 10 -56 31 -56 27 0 24 -15 -6 -28 -21 -10 -25 -18 -25 -57 0
-25 -4 -45 -10 -45 -16 0 -12 -37 5 -44 20 -7 19 -18 -5 -46 -14 -16 -20 -37
-20 -67 0 -46 13 -67 46 -76 16 -4 16 -5 -3 -6 -43 -2 -22 -81 21 -81 10 0 16
-9 16 -25 0 -15 6 -25 14 -25 28 0 46 12 46 31 0 16 8 19 50 19 47 0 50 -2 50
-25 0 -20 5 -25 26 -25 36 0 54 22 54 67 0 27 6 43 20 53 16 11 20 26 20 70 0
31 5 61 11 67 6 6 13 54 15 107 5 81 3 97 -10 102 -18 7 -22 50 -4 56 7 3 9
14 4 31 -5 22 -12 27 -36 27 -29 0 -30 1 -30 48 0 66 -9 92 -31 92 -11 0 -19
-7 -19 -16 0 -8 5 -12 10 -9 6 3 10 1 10 -4 0 -6 -7 -11 -15 -11 -9 0 -15 9
-15 25 0 14 -3 25 -7 25 -5 0 -8 -16 -8 -35z m-57 -197 l3 -66 -30 -7 c-43 -9
-51 -1 -51 56 0 66 14 91 48 87 26 -3 27 -6 30 -70z m152 53 c5 -11 10 -54 10
-95 l0 -76 -60 0 c-57 0 -60 1 -60 25 0 15 -6 25 -14 25 -11 0 -15 18 -18 70
l-3 70 67 0 c56 0 69 -3 78 -19z m-250 -105 c0 -8 -4 -18 -10 -21 -5 -3 -10
-17 -10 -31 0 -13 -4 -24 -10 -24 -5 0 -10 20 -10 45 0 38 3 45 20 45 11 0 20
-6 20 -14z m300 -32 c0 -27 -4 -43 -10 -39 -5 3 -10 24 -10 46 0 21 5 39 10
39 6 0 10 -21 10 -46z m-242 -4 c6 0 12 -7 12 -15 0 -10 -11 -15 -35 -15 -29
0 -35 4 -35 21 0 17 4 20 23 15 12 -3 28 -6 35 -6z m210 -85 c-1 -24 -7 -35
-18 -35 -13 0 -13 -1 0 -10 10 -7 -22 -10 -100 -9 -73 0 -108 4 -95 9 17 7 14
9 -15 10 -29 1 -32 3 -15 10 11 5 15 9 9 9 -13 1 -15 31 -2 31 5 0 6 5 3 10
-4 6 37 10 115 10 l121 0 -3 -35z m-288 -155 c0 -5 -9 -10 -20 -10 -11 0 -20
5 -20 10 0 6 9 10 20 10 11 0 20 -4 20 -10z m280 -30 c0 -5 -4 -10 -10 -10 -5
0 -10 5 -10 10 0 6 5 10 10 10 6 0 10 -4 10 -10z m-189 -37 c-26 -3 -31 -7
-20 -14 10 -6 1 -9 -29 -9 -24 0 -41 4 -37 9 3 5 -3 12 -12 14 -10 3 16 4 57
4 41 0 60 -2 41 -4z m-31 -83 c0 -5 -4 -10 -10 -10 -5 0 -10 5 -10 10 0 6 5
10 10 10 6 0 10 -4 10 -10z"/>
<path d="M8313 4839 c14 -8 22 -8 30 0 8 8 3 11 -18 11 -26 -1 -28 -2 -12 -11z"/>
<path d="M8110 4840 c0 -5 5 -10 11 -10 5 0 7 5 4 10 -3 6 -8 10 -11 10 -2 0
-4 -4 -4 -10z"/>
<path d="M8237 4784 c-4 -4 -7 -20 -7 -36 0 -26 3 -28 41 -28 39 0 40 1 37 33
-3 28 -7 32 -33 35 -17 2 -34 0 -38 -4z m56 -11 c-7 -2 -19 -2 -25 0 -7 3 -2
5 12 5 14 0 19 -2 13 -5z"/>
<path d="M9227 5152 c-12 -13 -17 -37 -17 -75 0 -57 0 -57 -30 -57 -25 0 -30
-4 -30 -24 0 -40 11 -56 36 -56 33 0 30 -13 -6 -27 -27 -10 -30 -15 -30 -57 0
-25 -4 -46 -10 -46 -16 0 -11 -37 6 -44 9 -4 14 -13 10 -21 -3 -8 0 -15 7 -15
20 0 37 52 30 93 -4 24 -2 37 6 37 7 0 11 -33 11 -101 0 -85 3 -104 18 -115
26 -21 42 -16 42 11 0 24 3 25 60 25 46 0 60 -3 60 -15 0 -14 29 -35 49 -35 7
0 11 30 11 79 0 75 1 79 21 74 28 -8 39 11 39 69 0 50 -16 68 -59 68 -12 0
-21 5 -21 10 0 6 9 10 21 10 31 0 52 26 45 55 -5 20 -13 25 -36 25 l-30 0 0
65 c0 79 -8 85 -113 85 -59 0 -77 -4 -90 -18z m60 -9 c-9 -2 -15 -9 -12 -14 4
-5 -4 -9 -17 -8 -13 0 -17 3 -10 6 6 2 10 9 6 14 -3 5 7 8 23 8 17 -1 21 -3
10 -6z m83 -78 c0 -21 -5 -35 -12 -36 -7 -1 -31 -2 -53 -3 -39 -1 -40 0 -43
37 l-3 37 55 0 56 0 0 -35z m13 -124 c62 -2 44 -41 -19 -41 -15 0 -24 6 -24
15 0 8 -4 15 -10 15 -5 0 -10 -9 -10 -20 0 -16 -7 -20 -30 -20 -25 0 -30 4
-30 25 0 14 -4 25 -10 25 -5 0 -10 -7 -10 -17 0 -9 -3 -14 -6 -10 -4 3 -4 12
-1 19 3 9 22 13 58 11 30 0 71 -2 92 -2z m-139 -56 c3 -8 15 -15 26 -15 18 0
20 -6 20 -60 0 -33 -3 -60 -7 -60 -5 0 -18 -3 -30 -6 -22 -6 -23 -4 -23 61 0
63 -1 66 -22 63 -17 -2 -24 -11 -26 -30 -5 -45 -22 -32 -22 17 l0 45 39 0 c25
0 41 -5 45 -15z m256 -32 c0 -46 -14 -51 -22 -8 -2 13 -12 21 -30 23 -22 3
-26 0 -21 -17 5 -18 1 -21 -31 -21 -29 0 -36 -4 -36 -20 0 -16 7 -20 35 -20
32 0 35 -3 35 -29 0 -30 4 -30 -82 -16 l-38 6 0 58 c0 50 3 59 23 69 27 14 57
19 120 21 l47 1 0 -47z m-30 -2 c0 -6 -4 -13 -10 -16 -5 -3 -10 1 -10 9 0 9 5
16 10 16 6 0 10 -4 10 -9z m-35 -41 c-3 -5 -19 -10 -36 -10 -16 0 -29 5 -29
10 0 6 16 10 36 10 21 0 33 -4 29 -10z m-114 -77 c-11 -5 -11 -7 0 -14 10 -6
4 -9 -18 -9 -23 0 -33 5 -33 15 0 10 10 15 33 14 17 0 26 -3 18 -6z"/>
<path d="M9270 5065 c0 -8 5 -15 10 -15 6 0 10 7 10 15 0 8 -4 15 -10 15 -5 0
-10 -7 -10 -15z"/>
<path d="M9320 5065 c0 -8 7 -15 15 -15 8 0 15 7 15 15 0 8 -7 15 -15 15 -8 0
-15 -7 -15 -15z"/>
<path d="M9247 4853 c-13 -13 -7 -33 11 -33 14 0 15 2 2 10 -13 9 -13 11 0 20
8 5 10 10 4 10 -6 0 -14 -3 -17 -7z"/>
<path d="M9240 4793 c0 -10 4 -14 8 -8 4 6 11 13 16 18 5 4 2 7 -7 7 -10 0
-17 -8 -17 -17z"/>
<path d="M9327 4853 c-13 -13 -7 -33 11 -33 14 0 15 2 2 10 -13 9 -13 11 0 20
8 5 10 10 4 10 -6 0 -14 -3 -17 -7z"/>
<path d="M9320 4793 c0 -10 4 -14 8 -8 4 6 11 13 16 18 5 4 2 7 -7 7 -10 0
-17 -8 -17 -17z"/>
<path d="M8128 5154 c-5 -4 -8 -21 -8 -38 0 -21 3 -27 11 -19 6 6 9 23 7 38
-2 15 -6 23 -10 19z"/>
<path d="M8217 5153 c-12 -12 -7 -53 6 -53 9 0 12 10 9 30 -5 32 -5 33 -15 23z"/>
<path d="M8173 5133 c4 -3 2 -12 -4 -20 -9 -10 -8 -13 5 -13 9 0 16 8 16 20 0
11 -5 20 -12 20 -6 0 -8 -3 -5 -7z"/>
<path d="M8780 5083 c-36 -15 -54 -56 -27 -66 7 -2 8 -8 3 -13 -5 -5 -11 -4
-13 4 -6 17 -23 15 -23 -3 0 -8 -4 -15 -10 -15 -8 0 -55 -44 -87 -84 -7 -8
-13 -34 -13 -56 0 -43 4 -50 57 -103 53 -53 60 -57 108 -57 25 0 52 6 61 13
82 69 94 88 94 147 0 23 -5 51 -12 63 -13 26 -66 77 -79 77 -5 0 -9 7 -9 15 0
8 -5 15 -11 15 -7 0 -9 12 -5 35 7 36 1 41 -34 28z m30 -13 c0 -5 -4 -10 -10
-10 -5 0 -10 5 -10 10 0 6 5 10 10 10 6 0 10 -4 10 -10z m-67 -147 c-7 -2 -21
-2 -30 0 -10 3 -4 5 12 5 17 0 24 -2 18 -5z m-13 -23 c0 -5 -8 -10 -17 -10
-15 0 -16 -2 -3 -10 12 -8 10 -10 -8 -10 -13 0 -20 4 -17 10 3 6 1 10 -4 10
-6 0 -11 5 -11 10 0 6 14 10 30 10 17 0 30 -4 30 -10z"/>
<path d="M8170 5065 c0 -8 5 -15 10 -15 6 0 10 7 10 15 0 8 -4 15 -10 15 -5 0
-10 -7 -10 -15z"/>
<path d="M8220 5065 c0 -8 7 -15 15 -15 8 0 15 7 15 15 0 8 -7 15 -15 15 -8 0
-15 -7 -15 -15z"/>
<path d="M6840 4990 c0 -5 9 -10 20 -10 11 0 20 5 20 10 0 6 -9 10 -20 10 -11
0 -20 -4 -20 -10z"/>
<path d="M9150 4710 c0 -5 9 -10 20 -10 11 0 20 5 20 10 0 6 -9 10 -20 10 -11
0 -20 -4 -20 -10z"/>
<path d="M3180 4683 c-36 -15 -54 -56 -27 -66 7 -2 8 -8 3 -13 -5 -5 -11 -4
-13 4 -6 17 -23 15 -23 -3 0 -8 -4 -15 -10 -15 -8 0 -55 -44 -87 -84 -7 -8
-13 -34 -13 -56 0 -43 4 -50 57 -103 53 -53 60 -57 108 -57 25 0 52 6 61 13
82 69 94 88 94 147 0 23 -5 51 -12 63 -13 26 -66 77 -79 77 -5 0 -9 7 -9 15 0
8 -5 15 -11 15 -7 0 -9 12 -5 35 7 36 1 41 -34 28z m30 -13 c0 -5 -4 -10 -10
-10 -5 0 -10 5 -10 10 0 6 5 10 10 10 6 0 10 -4 10 -10z m-67 -147 c-7 -2 -21
-2 -30 0 -10 3 -4 5 12 5 17 0 24 -2 18 -5z m-13 -23 c0 -5 -8 -10 -17 -10
-15 0 -16 -2 -3 -10 12 -8 10 -10 -8 -10 -13 0 -20 4 -17 10 3 6 1 10 -4 10
-6 0 -11 5 -11 10 0 6 14 10 30 10 17 0 30 -4 30 -10z"/>
<path d="M2148 4339 c-14 -8 -18 -24 -18 -74 l0 -65 -30 0 c-23 0 -31 -5 -36
-25 -7 -29 14 -55 45 -55 12 0 21 -4 21 -10 0 -5 -9 -10 -21 -10 -43 0 -59
-18 -59 -68 0 -58 11 -77 39 -69 20 5 21 1 21 -74 0 -49 4 -79 11 -79 20 0 49
21 49 35 0 12 14 15 60 15 57 0 60 -1 60 -25 0 -27 16 -32 43 -11 14 11 17 30
17 115 0 68 4 101 11 101 8 0 10 -13 6 -37 -7 -41 10 -93 30 -93 7 0 10 7 7
15 -4 8 1 17 10 21 17 7 22 44 6 44 -5 0 -10 21 -10 46 0 42 -3 47 -30 57 -36
14 -39 27 -6 27 25 0 36 16 36 56 0 20 -5 24 -30 24 -30 0 -30 0 -30 58 0 81
-14 92 -111 92 -41 0 -82 -5 -91 -11z m158 -18 c-4 -5 0 -12 6 -14 7 -3 3 -6
-10 -6 -13 -1 -21 3 -17 8 3 5 -3 12 -12 14 -11 3 -7 5 10 6 16 0 26 -3 23 -8z
m-8 -78 c-3 -37 -4 -38 -43 -37 -22 1 -46 2 -52 3 -8 1 -13 15 -13 36 l0 35
56 0 55 0 -3 -37z m29 -139 c2 -16 1 -16 -3 -1 -8 26 -24 21 -24 -8 0 -21 -5
-25 -30 -25 -23 0 -30 4 -30 20 0 11 -4 20 -10 20 -5 0 -10 -7 -10 -15 0 -9
-9 -15 -24 -15 -34 0 -56 10 -56 25 0 15 43 21 135 19 42 0 50 -4 52 -20z
m-97 -46 c16 -10 20 -24 20 -70 l0 -57 -37 -6 c-87 -14 -83 -14 -83 16 0 26 3
29 35 29 28 0 35 4 35 20 0 16 -7 20 -36 20 -32 0 -36 3 -31 21 5 17 1 20 -21
17 -18 -2 -28 -10 -30 -23 -8 -44 -22 -37 -22 9 l0 49 75 -6 c41 -4 84 -12 95
-19z m170 -23 c0 -49 -17 -62 -22 -17 -2 19 -9 28 -25 30 -22 3 -23 0 -23 -63
0 -65 -1 -67 -22 -61 -13 3 -26 6 -30 6 -5 0 -8 27 -8 60 0 54 2 60 20 60 11
0 23 7 26 15 4 10 20 15 45 15 l39 0 0 -45z m-290 -11 c0 -8 -4 -12 -10 -9 -5
3 -10 10 -10 16 0 5 5 9 10 9 6 0 10 -7 10 -16z m80 -34 c0 -5 -13 -10 -29
-10 -17 0 -33 5 -36 10 -4 6 8 10 29 10 20 0 36 -4 36 -10z m100 -85 c0 -10
-10 -15 -32 -14 -18 0 -27 3 -19 6 11 5 11 7 0 14 -10 6 -4 9 19 9 22 0 32 -5
32 -15z"/>
<path d="M2210 4245 c0 -8 7 -15 15 -15 8 0 15 7 15 15 0 8 -7 15 -15 15 -8 0
-15 -7 -15 -15z"/>
<path d="M2270 4245 c0 -8 5 -15 10 -15 6 0 10 7 10 15 0 8 -4 15 -10 15 -5 0
-10 -7 -10 -15z"/>
<path d="M2220 4031 c13 -10 13 -12 0 -21 -13 -8 -12 -10 3 -10 22 0 19 31 -3
37 -13 4 -13 3 0 -6z"/>
<path d="M2216 3983 c5 -5 12 -12 16 -18 4 -6 8 -2 8 8 0 9 -7 17 -17 17 -9 0
-12 -3 -7 -7z"/>
<path d="M2300 4031 c13 -10 13 -12 0 -21 -13 -8 -12 -10 3 -10 22 0 19 31 -3
37 -13 4 -13 3 0 -6z"/>
<path d="M2296 3983 c5 -5 12 -12 16 -18 4 -6 8 -2 8 8 0 9 -7 17 -17 17 -9 0
-12 -3 -7 -7z"/>
<path d="M630 4150 c0 -11 -4 -20 -10 -20 -14 0 -12 -47 3 -54 10 -5 10 -7 0
-12 -7 -3 -13 -12 -13 -19 0 -7 -5 -15 -10 -17 -16 -5 -17 -171 -2 -176 7 -2
12 -8 12 -14 0 -19 29 -38 60 -38 31 0 60 19 60 38 0 6 5 12 12 14 15 5 14
171 -2 176 -5 2 -10 10 -10 17 0 7 -6 16 -12 19 -10 5 -10 7 0 12 14 7 16 54
2 54 -5 0 -10 9 -10 20 0 17 -7 20 -40 20 -33 0 -40 -3 -40 -20z m80 -40 c0
-5 -4 -10 -10 -10 -5 0 -10 -9 -10 -20 0 -11 5 -20 10 -20 6 0 10 -7 10 -15 0
-8 5 -15 10 -15 6 0 10 -20 10 -45 0 -25 5 -45 10 -45 6 0 10 -7 10 -15 0 -8
-4 -15 -10 -15 -5 0 -10 -13 -10 -30 0 -16 -4 -30 -10 -30 -5 0 -10 -7 -10
-15 0 -11 -11 -15 -40 -15 -29 0 -40 4 -40 15 0 8 -4 15 -10 15 -5 0 -10 14
-10 30 0 17 -4 30 -10 30 -5 0 -10 7 -10 15 0 8 5 15 10 15 6 0 10 20 10 45 0
25 5 45 10 45 6 0 10 7 10 15 0 8 5 15 10 15 6 0 10 9 10 20 0 11 -4 20 -10
20 -5 0 -10 5 -10 10 0 6 18 10 40 10 22 0 40 -4 40 -10z"/>
<path d="M4610 4150 c0 -11 -4 -20 -10 -20 -5 0 -10 -11 -10 -25 0 -14 5 -25
10 -25 16 0 12 -37 -5 -44 -9 -3 -15 -19 -15 -41 0 -19 -4 -35 -10 -35 -5 0
-10 -7 -10 -15 0 -8 -4 -15 -10 -15 -5 0 -10 -13 -10 -30 0 -16 5 -30 10 -30
6 0 10 -7 10 -15 0 -8 4 -15 9 -15 5 0 13 -9 16 -20 6 -18 15 -20 85 -20 70 0
79 2 85 20 3 11 11 20 16 20 5 0 9 7 9 15 0 8 5 15 10 15 6 0 10 14 10 30 0
17 -4 30 -10 30 -5 0 -10 7 -10 15 0 8 -4 15 -10 15 -5 0 -10 16 -10 35 0 22
-6 38 -15 41 -17 7 -21 44 -5 44 6 0 10 11 10 25 0 14 -4 25 -10 25 -5 0 -10
9 -10 20 0 18 -7 20 -60 20 -53 0 -60 -2 -60 -20z m80 -10 c0 -5 -13 -10 -30
-10 -16 0 -30 5 -30 10 0 6 14 10 30 10 17 0 30 -4 30 -10z m40 -30 c0 -5 -4
-10 -10 -10 -19 0 -11 -58 9 -65 13 -4 20 -18 24 -52 3 -26 10 -49 16 -51 13
-4 15 -62 2 -62 -5 0 -12 -11 -15 -25 -6 -24 -9 -25 -86 -25 -77 0 -80 1 -86
25 -3 14 -10 25 -15 25 -13 0 -11 58 2 62 6 2 13 25 16 51 4 34 11 48 24 52
20 7 28 65 9 65 -5 0 -10 5 -10 10 0 6 27 10 60 10 33 0 60 -4 60 -10z"/>
<path d="M4585 3930 c-4 -16 -4 -43 0 -60 l7 -30 78 0 78 0 7 30 c4 17 4 44 0
60 l-7 30 -78 0 -78 0 -7 -30z"/>
<path d="M6927 4152 c-12 -13 -17 -37 -17 -75 0 -57 0 -57 -30 -57 -25 0 -30
-4 -30 -24 0 -40 11 -56 36 -56 33 0 30 -13 -6 -27 -27 -10 -30 -15 -30 -57 0
-25 -4 -46 -10 -46 -16 0 -11 -37 6 -44 9 -4 14 -13 10 -21 -3 -8 0 -15 7 -15
20 0 37 52 30 93 -4 24 -2 37 6 37 7 0 11 -33 11 -101 0 -85 3 -104 18 -115
26 -21 42 -16 42 11 0 24 3 25 60 25 46 0 60 -3 60 -15 0 -14 29 -35 49 -35 7
0 11 30 11 79 0 75 1 79 21 74 28 -8 39 11 39 69 0 50 -16 68 -59 68 -12 0
-21 5 -21 10 0 6 9 10 21 10 31 0 52 26 45 55 -5 20 -13 25 -36 25 l-30 0 0
65 c0 79 -8 85 -113 85 -59 0 -77 -4 -90 -18z m60 -9 c-9 -2 -15 -9 -12 -14 4
-5 -4 -9 -17 -8 -13 0 -17 3 -10 6 6 2 10 9 6 14 -3 5 7 8 23 8 17 -1 21 -3
10 -6z m83 -78 c0 -21 -5 -35 -12 -36 -7 -1 -31 -2 -53 -3 -39 -1 -40 0 -43
37 l-3 37 55 0 56 0 0 -35z m13 -124 c62 -2 44 -41 -19 -41 -15 0 -24 6 -24
15 0 8 -4 15 -10 15 -5 0 -10 -9 -10 -20 0 -16 -7 -20 -30 -20 -25 0 -30 4
-30 25 0 14 -4 25 -10 25 -5 0 -10 -7 -10 -17 0 -9 -3 -14 -6 -10 -4 3 -4 12
-1 19 3 9 22 13 58 11 30 0 71 -2 92 -2z m-139 -56 c3 -8 15 -15 26 -15 18 0
20 -6 20 -60 0 -33 -3 -60 -7 -60 -5 0 -18 -3 -30 -6 -22 -6 -23 -4 -23 61 0
63 -1 66 -22 63 -17 -2 -24 -11 -26 -30 -5 -45 -22 -32 -22 17 l0 45 39 0 c25
0 41 -5 45 -15z m256 -32 c0 -46 -14 -51 -22 -8 -2 13 -12 21 -30 23 -22 3
-26 0 -21 -17 5 -18 1 -21 -31 -21 -29 0 -36 -4 -36 -20 0 -16 7 -20 35 -20
32 0 35 -3 35 -29 0 -30 4 -30 -82 -16 l-38 6 0 58 c0 50 3 59 23 69 27 14 57
19 120 21 l47 1 0 -47z m-30 -2 c0 -6 -4 -13 -10 -16 -5 -3 -10 1 -10 9 0 9 5
16 10 16 6 0 10 -4 10 -9z m-35 -41 c-3 -5 -19 -10 -36 -10 -16 0 -29 5 -29
10 0 6 16 10 36 10 21 0 33 -4 29 -10z m-114 -77 c-11 -5 -11 -7 0 -14 10 -6
4 -9 -18 -9 -23 0 -33 5 -33 15 0 10 10 15 33 14 17 0 26 -3 18 -6z"/>
<path d="M6970 4065 c0 -8 5 -15 10 -15 6 0 10 7 10 15 0 8 -4 15 -10 15 -5 0
-10 -7 -10 -15z"/>
<path d="M7020 4065 c0 -8 7 -15 15 -15 8 0 15 7 15 15 0 8 -7 15 -15 15 -8 0
-15 -7 -15 -15z"/>
<path d="M6947 3853 c-13 -13 -7 -33 11 -33 14 0 15 2 2 10 -13 9 -13 11 0 20
8 5 10 10 4 10 -6 0 -14 -3 -17 -7z"/>
<path d="M6940 3793 c0 -10 4 -14 8 -8 4 6 11 13 16 18 5 4 2 7 -7 7 -10 0
-17 -8 -17 -17z"/>
<path d="M7027 3853 c-13 -13 -7 -33 11 -33 14 0 15 2 2 10 -13 9 -13 11 0 20
8 5 10 10 4 10 -6 0 -14 -3 -17 -7z"/>
<path d="M7020 3793 c0 -10 4 -14 8 -8 4 6 11 13 16 18 5 4 2 7 -7 7 -10 0
-17 -8 -17 -17z"/>
<path d="M2370 3890 c0 -5 9 -10 20 -10 11 0 20 5 20 10 0 6 -9 10 -20 10 -11
0 -20 -4 -20 -10z"/>
<path d="M9860 3733 c-36 -15 -54 -56 -27 -66 7 -2 8 -8 3 -13 -5 -5 -11 -4
-13 4 -6 17 -23 15 -23 -3 0 -8 -4 -15 -10 -15 -8 0 -55 -44 -87 -84 -7 -8
-13 -34 -13 -56 0 -43 4 -50 57 -103 53 -53 60 -57 108 -57 25 0 52 6 61 13
82 69 94 88 94 147 0 23 -5 51 -12 63 -13 26 -66 77 -79 77 -5 0 -9 7 -9 15 0
8 -5 15 -11 15 -7 0 -9 12 -5 35 7 36 1 41 -34 28z m30 -13 c0 -5 -4 -10 -10
-10 -5 0 -10 5 -10 10 0 6 5 10 10 10 6 0 10 -4 10 -10z m-67 -147 c-7 -2 -21
-2 -30 0 -10 3 -4 5 12 5 17 0 24 -2 18 -5z m-13 -23 c0 -5 -8 -10 -17 -10
-15 0 -16 -2 -3 -10 12 -8 10 -10 -8 -10 -13 0 -20 4 -17 10 3 6 1 10 -4 10
-6 0 -11 5 -11 10 0 6 14 10 30 10 17 0 30 -4 30 -10z"/>
<path d="M6850 3710 c0 -5 9 -10 20 -10 11 0 20 5 20 10 0 6 -9 10 -20 10 -11
0 -20 -4 -20 -10z"/>
<path d="M5180 3683 c-36 -15 -54 -56 -27 -66 7 -2 8 -8 3 -13 -5 -5 -11 -4
-13 4 -6 17 -23 15 -23 -3 0 -8 -4 -15 -10 -15 -8 0 -55 -44 -87 -84 -7 -8
-13 -34 -13 -56 0 -43 4 -50 57 -103 53 -53 60 -57 108 -57 25 0 52 6 61 13
82 69 94 88 94 147 0 23 -5 51 -12 63 -13 26 -66 77 -79 77 -5 0 -9 7 -9 15 0
8 -5 15 -11 15 -7 0 -9 12 -5 35 7 36 1 41 -34 28z m30 -13 c0 -5 -4 -10 -10
-10 -5 0 -10 5 -10 10 0 6 5 10 10 10 6 0 10 -4 10 -10z m-67 -147 c-7 -2 -21
-2 -30 0 -10 3 -4 5 12 5 17 0 24 -2 18 -5z m-13 -23 c0 -5 -8 -10 -17 -10
-15 0 -16 -2 -3 -10 12 -8 10 -10 -8 -10 -13 0 -20 4 -17 10 3 6 1 10 -4 10
-6 0 -11 5 -11 10 0 6 14 10 30 10 17 0 30 -4 30 -10z"/>
<path d="M5880 2683 c-36 -15 -54 -56 -27 -66 7 -2 8 -8 3 -13 -5 -5 -11 -4
-13 4 -6 17 -23 15 -23 -3 0 -8 -4 -15 -10 -15 -8 0 -55 -44 -87 -84 -7 -8
-13 -34 -13 -56 0 -43 4 -50 57 -103 53 -53 60 -57 108 -57 25 0 52 6 61 13
82 69 94 88 94 147 0 23 -5 51 -12 63 -13 26 -66 77 -79 77 -5 0 -9 7 -9 15 0
8 -5 15 -11 15 -7 0 -9 12 -5 35 7 36 1 41 -34 28z m30 -13 c0 -5 -4 -10 -10
-10 -5 0 -10 5 -10 10 0 6 5 10 10 10 6 0 10 -4 10 -10z m-67 -147 c-7 -2 -21
-2 -30 0 -10 3 -4 5 12 5 17 0 24 -2 18 -5z m-13 -23 c0 -5 -8 -10 -17 -10
-15 0 -16 -2 -3 -10 12 -8 10 -10 -8 -10 -13 0 -20 4 -17 10 3 6 1 10 -4 10
-6 0 -11 5 -11 10 0 6 14 10 30 10 17 0 30 -4 30 -10z"/>
<path d="M2140 2613 c-36 -15 -54 -56 -27 -66 7 -2 8 -8 3 -13 -5 -5 -11 -4
-13 4 -6 17 -23 15 -23 -3 0 -8 -4 -15 -10 -15 -8 0 -55 -44 -87 -84 -7 -8
-13 -34 -13 -56 0 -43 4 -50 57 -103 53 -53 60 -57 108 -57 25 0 52 6 61 13
82 69 94 88 94 147 0 23 -5 51 -12 63 -13 26 -66 77 -79 77 -5 0 -9 7 -9 15 0
8 -5 15 -11 15 -7 0 -9 12 -5 35 7 36 1 41 -34 28z m30 -13 c0 -5 -4 -10 -10
-10 -5 0 -10 5 -10 10 0 6 5 10 10 10 6 0 10 -4 10 -10z m-67 -147 c-7 -2 -21
-2 -30 0 -10 3 -4 5 12 5 17 0 24 -2 18 -5z m-13 -23 c0 -5 -8 -10 -17 -10
-15 0 -16 -2 -3 -10 12 -8 10 -10 -8 -10 -13 0 -20 4 -17 10 3 6 1 10 -4 10
-6 0 -11 5 -11 10 0 6 14 10 30 10 17 0 30 -4 30 -10z"/>
<path d="M7180 2483 c-36 -15 -54 -56 -27 -66 7 -2 8 -8 3 -13 -5 -5 -11 -4
-13 4 -6 17 -23 15 -23 -3 0 -8 -4 -15 -10 -15 -8 0 -55 -44 -87 -84 -7 -8
-13 -34 -13 -56 0 -43 4 -50 57 -103 53 -53 60 -57 108 -57 25 0 52 6 61 13
82 69 94 88 94 147 0 23 -5 51 -12 63 -13 26 -66 77 -79 77 -5 0 -9 7 -9 15 0
8 -5 15 -11 15 -7 0 -9 12 -5 35 7 36 1 41 -34 28z m30 -13 c0 -5 -4 -10 -10
-10 -5 0 -10 5 -10 10 0 6 5 10 10 10 6 0 10 -4 10 -10z m-67 -147 c-7 -2 -21
-2 -30 0 -10 3 -4 5 12 5 17 0 24 -2 18 -5z m-13 -23 c0 -5 -8 -10 -17 -10
-15 0 -16 -2 -3 -10 12 -8 10 -10 -8 -10 -13 0 -20 4 -17 10 3 6 1 10 -4 10
-6 0 -11 5 -11 10 0 6 14 10 30 10 17 0 30 -4 30 -10z"/>
<path d="M9180 2183 c-36 -15 -54 -56 -27 -66 7 -2 8 -8 3 -13 -5 -5 -11 -4
-13 4 -6 17 -23 15 -23 -3 0 -8 -4 -15 -10 -15 -8 0 -55 -44 -87 -84 -7 -8
-13 -34 -13 -56 0 -43 4 -50 57 -103 53 -53 60 -57 108 -57 25 0 52 6 61 13
82 69 94 88 94 147 0 23 -5 51 -12 63 -13 26 -66 77 -79 77 -5 0 -9 7 -9 15 0
8 -5 15 -11 15 -7 0 -9 12 -5 35 7 36 1 41 -34 28z m30 -13 c0 -5 -4 -10 -10
-10 -5 0 -10 5 -10 10 0 6 5 10 10 10 6 0 10 -4 10 -10z m-67 -147 c-7 -2 -21
-2 -30 0 -10 3 -4 5 12 5 17 0 24 -2 18 -5z m-13 -23 c0 -5 -8 -10 -17 -10
-15 0 -16 -2 -3 -10 12 -8 10 -10 -8 -10 -13 0 -20 4 -17 10 3 6 1 10 -4 10
-6 0 -11 5 -11 10 0 6 14 10 30 10 17 0 30 -4 30 -10z"/>
<path d="M5797 1652 c-12 -13 -17 -37 -17 -75 0 -57 0 -57 -30 -57 -25 0 -30
-4 -30 -24 0 -40 11 -56 36 -56 33 0 30 -13 -6 -27 -27 -10 -30 -15 -30 -57 0
-25 -4 -46 -10 -46 -16 0 -11 -37 6 -44 9 -4 14 -13 10 -21 -3 -8 0 -15 7 -15
20 0 37 52 30 93 -4 24 -2 37 6 37 7 0 11 -33 11 -101 0 -85 3 -104 18 -115
26 -21 42 -16 42 11 0 24 3 25 60 25 46 0 60 -3 60 -15 0 -14 29 -35 49 -35 7
0 11 30 11 79 0 75 1 79 21 74 28 -8 39 11 39 69 0 50 -16 68 -59 68 -12 0
-21 5 -21 10 0 6 9 10 21 10 31 0 52 26 45 55 -5 20 -13 25 -36 25 l-30 0 0
65 c0 79 -8 85 -113 85 -59 0 -77 -4 -90 -18z m60 -9 c-9 -2 -15 -9 -12 -14 4
-5 -4 -9 -17 -8 -13 0 -17 3 -10 6 6 2 10 9 6 14 -3 5 7 8 23 8 17 -1 21 -3
10 -6z m83 -78 c0 -21 -5 -35 -12 -36 -7 -1 -31 -2 -53 -3 -39 -1 -40 0 -43
37 l-3 37 55 0 56 0 0 -35z m13 -124 c62 -2 44 -41 -19 -41 -15 0 -24 6 -24
15 0 8 -4 15 -10 15 -5 0 -10 -9 -10 -20 0 -16 -7 -20 -30 -20 -25 0 -30 4
-30 25 0 14 -4 25 -10 25 -5 0 -10 -7 -10 -17 0 -9 -3 -14 -6 -10 -4 3 -4 12
-1 19 3 9 22 13 58 11 30 0 71 -2 92 -2z m-139 -56 c3 -8 15 -15 26 -15 18 0
20 -6 20 -60 0 -33 -3 -60 -7 -60 -5 0 -18 -3 -30 -6 -22 -6 -23 -4 -23 61 0
63 -1 66 -22 63 -17 -2 -24 -11 -26 -30 -5 -45 -22 -32 -22 17 l0 45 39 0 c25
0 41 -5 45 -15z m256 -32 c0 -46 -14 -51 -22 -8 -2 13 -12 21 -30 23 -22 3
-26 0 -21 -17 5 -18 1 -21 -31 -21 -29 0 -36 -4 -36 -20 0 -16 7 -20 35 -20
32 0 35 -3 35 -29 0 -30 4 -30 -82 -16 l-38 6 0 58 c0 50 3 59 23 69 27 14 57
19 120 21 l47 1 0 -47z m-30 -2 c0 -6 -4 -13 -10 -16 -5 -3 -10 1 -10 9 0 9 5
16 10 16 6 0 10 -4 10 -9z m-35 -41 c-3 -5 -19 -10 -36 -10 -16 0 -29 5 -29
10 0 6 16 10 36 10 21 0 33 -4 29 -10z m-114 -77 c-11 -5 -11 -7 0 -14 10 -6
4 -9 -18 -9 -23 0 -33 5 -33 15 0 10 10 15 33 14 17 0 26 -3 18 -6z"/>
<path d="M5840 1565 c0 -8 5 -15 10 -15 6 0 10 7 10 15 0 8 -4 15 -10 15 -5 0
-10 -7 -10 -15z"/>
<path d="M5890 1565 c0 -8 7 -15 15 -15 8 0 15 7 15 15 0 8 -7 15 -15 15 -8 0
-15 -7 -15 -15z"/>
<path d="M5817 1353 c-13 -13 -7 -33 11 -33 14 0 15 2 2 10 -13 9 -13 11 0 20
8 5 10 10 4 10 -6 0 -14 -3 -17 -7z"/>
<path d="M5810 1293 c0 -10 4 -14 8 -8 4 6 11 13 16 18 5 4 2 7 -7 7 -10 0
-17 -8 -17 -17z"/>
<path d="M5897 1353 c-13 -13 -7 -33 11 -33 14 0 15 2 2 10 -13 9 -13 11 0 20
8 5 10 10 4 10 -6 0 -14 -3 -17 -7z"/>
<path d="M5890 1293 c0 -10 4 -14 8 -8 4 6 11 13 16 18 5 4 2 7 -7 7 -10 0
-17 -8 -17 -17z"/>
<path d="M5720 1210 c0 -5 9 -10 20 -10 11 0 20 5 20 10 0 6 -9 10 -20 10 -11
0 -20 -4 -20 -10z"/>
<path d="M4680 1183 c-36 -15 -54 -56 -27 -66 7 -2 8 -8 3 -13 -5 -5 -11 -4
-13 4 -6 17 -23 15 -23 -3 0 -8 -4 -15 -10 -15 -8 0 -55 -44 -87 -84 -7 -8
-13 -34 -13 -56 0 -43 4 -50 57 -103 53 -53 60 -57 108 -57 25 0 52 6 61 13
82 69 94 88 94 147 0 23 -5 51 -12 63 -13 26 -66 77 -79 77 -5 0 -9 7 -9 15 0
8 -5 15 -11 15 -7 0 -9 12 -5 35 7 36 1 41 -34 28z m30 -13 c0 -5 -4 -10 -10
-10 -5 0 -10 5 -10 10 0 6 5 10 10 10 6 0 10 -4 10 -10z m-67 -147 c-7 -2 -21
-2 -30 0 -10 3 -4 5 12 5 17 0 24 -2 18 -5z m-13 -23 c0 -5 -8 -10 -17 -10
-15 0 -16 -2 -3 -10 12 -8 10 -10 -8 -10 -13 0 -20 4 -17 10 3 6 1 10 -4 10
-6 0 -11 5 -11 10 0 6 14 10 30 10 17 0 30 -4 30 -10z"/>
<path d="M360 1160 c0 -5 9 -10 20 -10 11 0 20 5 20 10 0 6 -9 10 -20 10 -11
0 -20 -4 -20 -10z"/>
<path d="M890 1033 c-10 -12 -11 -18 -2 -21 23 -7 12 -22 -18 -22 -16 0 -30
-4 -30 -10 0 -5 -7 -10 -16 -10 -18 0 -44 -23 -44 -40 0 -20 28 -40 54 -40 32
0 33 7 4 31 -11 11 -18 22 -15 26 4 3 15 -4 26 -15 10 -12 26 -22 35 -22 11 0
16 -9 16 -26 0 -31 21 -54 50 -54 29 0 50 23 50 54 0 17 5 26 16 26 9 0 25 10
35 22 11 11 22 18 26 15 3 -4 -4 -15 -15 -26 -29 -24 -28 -31 4 -31 26 0 54
20 54 40 0 17 -26 40 -44 40 -9 0 -16 5 -16 10 0 6 -9 10 -20 10 -12 0 -20 7
-20 16 0 20 -24 44 -44 44 -9 0 -16 -8 -16 -20 0 -11 -4 -20 -8 -20 -4 0 -14
9 -22 20 -17 24 -21 24 -40 3z m90 -143 c0 -11 -4 -20 -10 -20 -5 0 -10 5 -10
10 0 6 -9 10 -20 10 -11 0 -20 5 -20 10 0 6 14 10 30 10 23 0 30 -4 30 -20z
m-40 -30 c0 -5 -4 -10 -10 -10 -5 0 -10 5 -10 10 0 6 5 10 10 10 6 0 10 -4 10
-10z"/>
<path d="M1330 951 c0 -11 6 -22 13 -25 10 -5 10 -7 0 -12 -21 -10 -16 -44 7
-44 18 0 20 -7 20 -72 0 -40 4 -79 9 -87 7 -10 1 -22 -20 -42 -23 -22 -29 -35
-29 -71 0 -32 5 -47 20 -58 15 -11 20 -26 20 -62 0 -40 3 -48 18 -48 22 0 62
32 62 49 0 7 22 11 60 11 l60 0 0 -30 c0 -23 5 -30 18 -30 30 0 62 34 62 66 0
18 8 35 20 44 28 20 28 96 0 120 -13 11 -17 21 -10 25 13 8 13 170 0 196 -18
32 -61 46 -154 51 -69 4 -90 8 -98 21 -6 11 -22 17 -43 17 -28 0 -35 -4 -35
-19z m237 -61 c1 -12 -4 -20 -14 -20 -9 0 -13 6 -10 14 4 9 -1 17 -11 19 -11
3 -8 5 8 6 19 1 26 -4 27 -19z m81 -150 c4 -58 -12 -70 -96 -70 -69 0 -145 17
-136 31 3 5 -2 9 -10 9 -19 0 -21 26 -3 44 30 30 55 36 147 33 l95 -2 3 -45z
m-263 -90 c-3 -5 -1 -10 4 -10 6 0 11 -7 11 -15 0 -8 -5 -15 -11 -15 -5 0 -7
-4 -4 -10 3 -5 -3 -10 -14 -10 -16 0 -21 6 -21 29 0 26 9 38 33 40 5 1 5 -3 2
-9z m129 -16 c9 -3 16 -15 16 -25 0 -10 5 -19 10 -19 6 0 10 9 10 19 0 10 7
21 15 25 11 4 15 -1 15 -17 0 -18 -2 -19 -10 -7 -5 8 -10 10 -10 5 0 -6 5 -16
12 -23 9 -9 9 -12 -1 -12 -7 0 -9 -4 -6 -10 4 -6 -12 -10 -40 -10 -28 0 -44 4
-40 10 3 6 2 10 -2 10 -5 0 -10 14 -11 30 -2 31 9 37 42 24z m156 -19 c0 -14
-2 -25 -4 -25 -2 0 -6 11 -8 25 -3 14 -1 25 3 25 5 0 9 -11 9 -25z m-220 -5
c0 -11 -4 -20 -10 -20 -5 0 -10 9 -10 20 0 11 5 20 10 20 6 0 10 -9 10 -20z
m180 0 c0 -11 -4 -20 -10 -20 -5 0 -10 9 -10 20 0 11 5 20 10 20 6 0 10 -9 10
-20z m-240 -50 c0 -5 -9 -10 -20 -10 -11 0 -20 5 -20 10 0 6 9 10 20 10 11 0
20 -4 20 -10z m280 0 c0 -5 -4 -10 -10 -10 -5 0 -10 5 -10 10 0 6 5 10 10 10
6 0 10 -4 10 -10z"/>
<path d="M1497 759 c8 -8 16 -8 30 0 16 9 14 10 -11 11 -22 0 -27 -3 -19 -11z"/>
<path d="M1608 758 c9 -9 15 -9 24 0 9 9 7 12 -12 12 -19 0 -21 -3 -12 -12z"/>
<path d="M1563 743 c9 -2 23 -2 30 0 6 3 -1 5 -18 5 -16 0 -22 -2 -12 -5z"/>
<path d="M2730 733 c-36 -15 -54 -56 -27 -66 7 -2 8 -8 3 -13 -5 -5 -11 -4
-13 4 -6 17 -23 15 -23 -3 0 -8 -4 -15 -10 -15 -8 0 -55 -44 -87 -84 -7 -8
-13 -34 -13 -56 0 -22 6 -48 13 -56 16 -19 72 -75 91 -91 20 -17 102 -17 122
0 82 69 94 88 94 147 0 23 -5 51 -12 63 -13 26 -66 77 -79 77 -5 0 -9 7 -9 15
0 8 -5 15 -11 15 -7 0 -9 12 -5 35 7 36 1 41 -34 28z m30 -13 c0 -5 -4 -10
-10 -10 -5 0 -10 5 -10 10 0 6 5 10 10 10 6 0 10 -4 10 -10z m-67 -147 c-7 -2
-21 -2 -30 0 -10 3 -4 5 12 5 17 0 24 -2 18 -5z m-13 -23 c0 -5 -8 -10 -17
-10 -15 0 -16 -2 -3 -10 12 -8 10 -10 -8 -10 -13 0 -20 4 -17 10 3 6 1 10 -4
10 -6 0 -11 5 -11 10 0 6 14 10 30 10 17 0 30 -4 30 -10z"/>
<path d="M8180 693 c-36 -15 -54 -56 -27 -66 7 -2 8 -8 3 -13 -5 -5 -11 -4
-13 4 -6 17 -23 15 -23 -3 0 -8 -4 -15 -10 -15 -8 0 -55 -44 -87 -84 -7 -8
-13 -34 -13 -56 0 -22 6 -48 13 -56 16 -19 72 -75 91 -91 20 -17 102 -17 122
0 82 69 94 88 94 147 0 23 -5 51 -12 63 -13 26 -66 77 -79 77 -5 0 -9 7 -9 15
0 8 -5 15 -11 15 -7 0 -9 12 -5 35 7 36 1 41 -34 28z m30 -13 c0 -5 -4 -10
-10 -10 -5 0 -10 5 -10 10 0 6 5 10 10 10 6 0 10 -4 10 -10z m-67 -147 c-7 -2
-21 -2 -30 0 -10 3 -4 5 12 5 17 0 24 -2 18 -5z m-13 -23 c0 -5 -8 -10 -17
-10 -15 0 -16 -2 -3 -10 12 -8 10 -10 -8 -10 -13 0 -20 4 -17 10 3 6 1 10 -4
10 -6 0 -11 5 -11 10 0 6 14 10 30 10 17 0 30 -4 30 -10z"/>
<path d="M5180 683 c-36 -15 -54 -56 -27 -66 7 -2 8 -8 3 -13 -5 -5 -11 -4
-13 4 -6 17 -23 15 -23 -3 0 -8 -4 -15 -10 -15 -8 0 -55 -44 -87 -84 -7 -8
-13 -34 -13 -56 0 -22 6 -48 13 -56 16 -19 72 -75 91 -91 20 -17 102 -17 122
0 82 69 94 88 94 147 0 23 -5 51 -12 63 -13 26 -66 77 -79 77 -5 0 -9 7 -9 15
0 8 -5 15 -11 15 -7 0 -9 12 -5 35 7 36 1 41 -34 28z m30 -13 c0 -5 -4 -10
-10 -10 -5 0 -10 5 -10 10 0 6 5 10 10 10 6 0 10 -4 10 -10z m-67 -147 c-7 -2
-21 -2 -30 0 -10 3 -4 5 12 5 17 0 24 -2 18 -5z m-13 -23 c0 -5 -8 -10 -17
-10 -15 0 -16 -2 -3 -10 12 -8 10 -10 -8 -10 -13 0 -20 4 -17 10 3 6 1 10 -4
10 -6 0 -11 5 -11 10 0 6 14 10 30 10 17 0 30 -4 30 -10z"/>
<path d="M9248 606 c-40 -41 -80 -83 -89 -94 -10 -11 -25 -25 -35 -30 -11 -6
-16 -13 -12 -17 3 -4 49 36 101 89 52 53 97 96 101 96 3 0 6 -21 6 -46 0 -41
-5 -51 -40 -85 -22 -22 -36 -39 -32 -39 5 0 25 16 45 35 35 34 37 39 37 100 0
36 -2 65 -4 65 -2 0 -37 -33 -78 -74z"/>
<path d="M9221 505 c-13 -14 -26 -25 -30 -25 -4 0 -14 -11 -21 -25 -17 -32
-27 -31 -57 2 -20 21 -27 23 -34 12 -5 -8 -8 -25 -5 -39 3 -18 -5 -33 -30 -58
-36 -35 -41 -64 -13 -70 9 -2 31 12 49 30 24 23 43 33 64 33 25 0 31 4 32 22
1 12 16 35 34 51 18 17 29 35 26 41 -4 6 0 14 8 17 16 6 23 34 9 34 -5 0 -19
-12 -32 -25z m-90 -84 c43 -43 47 -51 23 -51 -20 0 -74 54 -74 74 0 24 8 20
51 -23z m-83 -99 c2 -7 -3 -12 -12 -12 -9 0 -16 7 -16 16 0 17 22 14 28 -4z"/>
<path d="M360 800 c0 -5 5 -10 10 -10 6 0 10 5 10 10 0 6 -4 10 -10 10 -5 0
-10 -4 -10 -10z"/>
</g>
</svg>
