<?xml version="1.0" standalone="no"?>
<!DOCTYPE svg PUBLIC "-//W3C//DTD SVG 20010904//EN"
 "http://www.w3.org/TR/2001/REC-SVG-20010904/DTD/svg10.dtd">
<svg version="1.0" xmlns="http://www.w3.org/2000/svg"
 width="1016.000000pt" height="1016.000000pt" viewBox="0 0 1016.000000 1016.000000"
 preserveAspectRatio="xMidYMid meet">

<g transform="translate(0.000000,1016.000000) scale(0.100000,-0.100000)"
fill="#000000" stroke="none">
<path d="M4915 9350 c-296 -20 -521 -132 -761 -377 -125 -128 -143 -153 -469
-658 -66 -102 -148 -229 -182 -281 -66 -100 -71 -119 -54 -197 6 -23 17 -76
27 -117 28 -128 64 -247 105 -347 l39 -96 -48 -51 c-53 -56 -136 -175 -172
-246 -85 -169 -496 -795 -604 -921 -208 -243 -403 -431 -540 -519 -80 -51
-126 -89 -126 -104 0 -6 27 -38 61 -71 121 -119 242 -290 340 -480 31 -60 85
-159 121 -220 64 -110 208 -402 208 -424 0 -25 81 -171 137 -246 56 -74 188
-204 293 -286 48 -38 215 -139 229 -139 4 0 16 -9 25 -19 17 -19 17 -22 -17
-78 -19 -32 -74 -125 -122 -208 -49 -82 -103 -175 -121 -205 -17 -30 -47 -83
-65 -117 -19 -35 -68 -113 -110 -175 -112 -167 -221 -343 -265 -428 -63 -122
-224 -400 -269 -465 -23 -33 -70 -107 -105 -165 -34 -58 -81 -132 -104 -165
-42 -59 -146 -237 -146 -248 0 -5 -43 -79 -155 -267 -90 -150 -160 -330 -129
-330 3 0 79 36 170 80 90 44 167 80 170 80 3 0 18 9 34 20 15 11 97 58 181
106 84 47 190 110 236 140 45 30 85 54 88 54 3 0 94 44 203 97 130 65 253 116
362 153 l164 55 8 40 c8 37 144 359 243 575 24 52 60 134 80 183 19 48 68 149
108 225 68 129 101 200 131 282 8 19 45 98 85 175 39 76 83 170 97 208 l27 70
87 -7 c48 -4 125 -13 171 -21 252 -45 729 -68 939 -46 41 5 152 16 245 25 94
10 195 22 225 28 154 29 299 90 432 184 42 30 81 54 85 54 16 0 173 -170 268
-290 54 -69 160 -188 235 -265 75 -77 170 -180 210 -230 91 -110 412 -487 456
-535 18 -19 67 -80 110 -135 42 -55 89 -115 103 -133 32 -39 55 -47 201 -66
413 -54 857 -96 1010 -96 l93 0 -125 128 c-140 141 -197 203 -255 277 -22 28
-56 65 -77 83 -20 17 -77 75 -126 126 -48 52 -132 135 -187 183 -54 49 -186
181 -295 293 -108 113 -254 262 -325 331 -130 128 -247 269 -404 492 -48 67
-122 172 -166 232 -44 61 -100 144 -124 185 -24 41 -56 93 -71 114 -23 32 -27
46 -22 75 7 39 66 217 83 247 5 11 18 44 27 74 9 30 35 89 57 130 156 296 212
377 382 550 147 149 153 163 100 236 -19 27 -43 60 -52 74 -10 14 -49 70 -88
125 -110 156 -216 328 -290 470 -38 72 -90 164 -117 207 -27 42 -66 117 -88
167 -59 138 -128 264 -217 393 -91 132 -296 372 -346 406 -19 12 -44 33 -56
46 -22 24 -23 25 -8 103 9 43 18 119 21 168 3 50 17 155 30 235 14 81 28 196
32 256 l7 110 -39 55 c-41 57 -222 271 -333 393 -36 40 -104 117 -151 171
-213 245 -332 350 -482 426 -135 68 -331 95 -573 79z m390 -815 c33 -8 107
-30 165 -48 128 -42 183 -85 230 -181 27 -55 31 -74 32 -147 0 -101 -47 -317
-119 -541 l-47 -148 -66 -26 c-145 -58 -182 -67 -305 -72 -113 -4 -128 -2
-260 33 -164 43 -306 89 -343 111 -25 15 -92 101 -92 118 0 5 -18 47 -39 95
-74 165 -93 315 -54 417 37 95 129 210 233 288 64 49 113 73 195 97 80 23 381
26 470 4z m830 -993 c-3 -3 -11 0 -18 7 -9 10 -8 11 6 5 10 -3 15 -9 12 -12z
m-8 -108 c98 -52 98 -51 74 -113 -12 -28 -21 -67 -21 -87 0 -19 -13 -64 -30
-101 -16 -36 -30 -69 -30 -74 0 -5 -16 -41 -35 -82 -19 -41 -35 -79 -35 -85 0
-7 -4 -12 -9 -12 -5 0 -13 -10 -17 -22 -4 -13 -9 -25 -13 -28 -8 -7 -38 -57
-59 -100 -9 -19 -41 -57 -70 -85 -46 -42 -50 -50 -35 -57 10 -4 -7 -6 -37 -3
-30 2 -146 7 -257 11 -112 4 -203 10 -203 13 0 3 20 5 44 3 42 -4 46 -2 73 36
27 37 114 204 146 282 8 19 29 65 45 101 50 106 99 269 110 359 l7 55 45 12
c25 6 89 12 142 12 92 1 99 -1 165 -35z m-1753 -12 c4 -10 14 -27 24 -38 10
-10 42 -55 72 -99 29 -44 57 -82 61 -85 4 -3 31 -43 60 -90 30 -47 62 -96 72
-110 10 -14 45 -65 78 -115 77 -117 125 -184 152 -216 12 -14 36 -43 52 -64
17 -21 38 -46 48 -55 45 -43 -282 -71 -493 -42 -140 19 -160 29 -229 122 -14
19 -31 40 -38 45 -17 15 -233 342 -233 353 0 6 -4 12 -9 14 -7 3 -91 135 -91
144 0 2 -13 26 -30 52 -34 55 -36 62 -17 62 7 0 37 13 67 28 147 76 259 110
372 111 66 1 77 -2 82 -17z m331 -32 c15 -6 88 -27 163 -47 124 -33 152 -37
292 -41 l155 -4 110 45 c61 24 113 43 116 41 10 -6 -9 -106 -40 -205 -51 -164
-181 -397 -269 -482 l-39 -38 -24 30 c-13 17 -48 63 -77 103 -29 40 -110 150
-180 243 -70 94 -141 190 -158 215 -17 25 -47 69 -68 98 -39 54 -36 63 19 42z
m1576 -67 c13 -16 12 -17 -3 -4 -10 7 -18 15 -18 17 0 8 8 3 21 -13z m-1671
-2 c0 -5 7 -17 16 -25 8 -9 11 -16 6 -16 -5 0 -17 11 -26 25 -9 14 -12 25 -6
25 5 0 10 -4 10 -9z m1017 -43 c-3 -8 -6 -5 -6 6 -1 11 2 17 5 13 3 -3 4 -12
1 -19z m906 -143 c106 -108 238 -284 291 -387 25 -47 61 -111 81 -142 20 -31
51 -92 70 -136 18 -44 56 -115 83 -158 27 -42 68 -113 90 -157 106 -206 341
-573 459 -719 54 -65 -28 -71 -243 -16 -172 45 -256 94 -440 256 -184 163
-218 203 -284 335 -91 181 -179 297 -275 360 -128 84 -166 106 -239 136 -45
19 -84 37 -88 41 -4 4 9 32 28 62 46 71 187 353 204 405 12 40 72 199 90 243
l10 23 43 -33 c23 -18 77 -69 120 -113z m-1852 78 c13 -16 12 -17 -3 -4 -10 7
-18 15 -18 17 0 8 8 3 21 -13z m-946 -208 c61 -117 122 -216 197 -320 l108
-149 -102 -35 c-97 -33 -107 -39 -173 -106 -38 -38 -99 -104 -134 -145 -91
-107 -307 -346 -364 -402 -86 -84 -411 -286 -512 -317 -177 -55 -422 -90 -439
-63 -2 4 16 25 41 45 105 85 344 329 467 477 25 30 77 93 117 140 79 94 159
211 237 350 99 177 154 269 207 350 34 52 70 109 80 125 42 70 173 231 181
222 1 -1 41 -78 89 -172z m1858 160 c-3 -9 -8 -14 -10 -11 -3 3 -2 9 2 15 9
16 15 13 8 -4z m-853 -40 c14 -19 14 -19 -2 -6 -10 7 -18 18 -18 24 0 6 1 8 3
6 1 -2 9 -13 17 -24z m34 -51 c9 -24 2 -26 -12 -4 -7 11 -8 20 -3 20 5 0 12
-7 15 -16z m-936 -59 c-3 -3 -9 2 -12 12 -6 14 -5 15 5 6 7 -7 10 -15 7 -18z
m993 -48 c-9 -9 -11 -8 -6 4 4 10 2 20 -4 24 -6 3 -11 11 -11 18 0 6 7 1 16
-12 13 -17 14 -25 5 -34z m67 -72 c-3 -3 -9 2 -12 12 -6 14 -5 15 5 6 7 -7 10
-15 7 -18z m583 -8 c-10 -9 -11 -8 -5 6 3 10 9 15 12 12 3 -3 0 -11 -7 -18z
m-1440 -144 c13 -16 12 -17 -3 -4 -10 7 -18 15 -18 17 0 8 8 3 21 -13z m1979
-17 c0 -2 -6 -9 -14 -15 -11 -9 -16 -9 -22 0 -4 7 -3 9 4 5 6 -3 13 -2 17 4 6
10 15 14 15 6z m-1930 -38 c0 -6 -6 -5 -15 2 -8 7 -15 14 -15 16 0 2 7 1 15
-2 8 -4 15 -11 15 -16z m1261 -11 c-10 -9 -11 -8 -5 6 3 10 9 15 12 12 3 -3 0
-11 -7 -18z m-221 -79 c0 -4 -5 -8 -11 -8 -5 0 -7 5 -4 10 3 6 2 10 -2 10 -5
0 -14 10 -22 23 -13 21 -13 21 13 -2 14 -14 26 -28 26 -33z m810 32 c-6 -11
-13 -20 -16 -20 -2 0 0 9 6 20 6 11 13 20 16 20 2 0 0 -9 -6 -20z m-610 -21
c13 -9 13 -10 -1 -6 -9 3 -22 0 -28 -6 -9 -9 -11 -8 -6 6 8 20 14 21 35 6z
m-1063 -55 c-3 -3 -12 -4 -19 -1 -8 3 -5 6 6 6 11 1 17 -2 13 -5z m68 -22 c-3
-3 -11 0 -18 7 -9 10 -8 11 6 5 10 -3 15 -9 12 -12z m1583 -47 c57 -4 93 -13
207 -51 48 -16 211 -121 241 -155 51 -57 215 -302 210 -314 -3 -10 -14 -11
-38 -5 -103 24 -136 35 -159 51 -27 19 -27 19 -43 -6 l-16 -25 -248 0 c-270 0
-278 2 -284 55 -2 25 -8 30 -28 30 -22 0 -25 -5 -28 -37 -2 -20 -8 -41 -15
-46 -7 -5 -48 -15 -92 -21 -44 -7 -107 -16 -140 -21 -86 -14 -333 -1 -376 19
-30 14 -35 22 -39 61 -4 40 -8 45 -30 45 -22 0 -26 -5 -30 -48 -5 -37 -14 -55
-41 -83 -32 -32 -44 -36 -149 -54 -63 -11 -142 -20 -175 -20 -127 0 -383 48
-406 76 -6 8 -14 40 -18 71 -10 92 -62 102 -67 12 -1 -23 -8 -47 -16 -55 -20
-20 -94 -32 -257 -40 l-144 -7 -33 39 c-27 33 -35 37 -51 28 -10 -6 -20 -22
-21 -35 -2 -13 -7 -28 -12 -32 -8 -9 -243 -58 -249 -52 -6 6 47 65 178 200 64
66 141 149 170 185 146 177 281 217 636 186 105 -9 234 -21 288 -26 146 -15
186 -12 268 15 114 39 187 57 269 65 74 7 618 4 738 -5z m562 -835 c41 -12
152 -60 248 -106 111 -54 219 -98 296 -121 66 -20 125 -39 129 -43 4 -4 -7
-13 -25 -20 -48 -20 -112 -65 -203 -144 -113 -99 -140 -130 -198 -226 -40 -66
-89 -122 -217 -251 -97 -97 -198 -188 -245 -220 -86 -59 -217 -139 -228 -139
-4 0 -66 -25 -139 -56 -137 -59 -244 -93 -388 -125 -70 -15 -125 -18 -320 -18
-244 0 -260 2 -450 38 -218 42 -415 140 -582 291 -87 78 -281 276 -363 370
-82 95 -267 280 -343 343 -53 44 -69 63 -60 69 43 29 172 88 223 102 113 30
430 105 487 115 31 5 119 13 195 17 216 11 321 -15 588 -145 268 -131 284
-137 308 -121 12 8 84 49 160 92 76 42 151 87 167 98 16 12 74 41 127 66 54
25 110 52 125 60 82 44 227 81 383 98 94 10 251 -2 325 -24z m-3525 -284 c251
-49 383 -130 606 -367 273 -291 357 -385 401 -449 l48 -68 -67 -58 c-95 -84
-228 -236 -268 -308 -59 -106 -123 -302 -140 -428 -3 -27 -8 -48 -9 -48 -3 0
-41 22 -129 74 -56 34 -225 182 -285 251 -59 67 -153 218 -195 316 -65 146
-185 390 -221 448 -12 20 -56 97 -96 171 -40 74 -92 162 -115 195 -23 33 -49
77 -59 97 -18 39 -64 103 -110 153 l-28 30 103 6 c189 10 478 2 564 -15z
m4572 -52 l22 -6 -25 -22 c-62 -52 -188 -205 -244 -296 -88 -143 -185 -329
-213 -408 -28 -75 -78 -182 -87 -182 -3 0 -17 19 -32 43 -68 107 -184 185
-311 209 l-64 12 48 61 c27 33 83 105 124 160 181 240 238 294 426 393 l104
54 115 -6 c63 -3 125 -8 137 -12z m-1014 -741 c-7 -2 -19 -2 -25 0 -7 3 -2 5
12 5 14 0 19 -2 13 -5z m124 -9 c-3 -3 -12 -4 -19 -1 -8 3 -5 6 6 6 11 1 17
-2 13 -5z m-187 -29 c-13 -14 -26 -23 -28 -20 -4 4 38 44 47 45 3 0 -6 -11
-19 -25z m260 -5 c8 -5 11 -10 5 -10 -5 0 -17 5 -25 10 -8 5 -10 10 -5 10 6 0
17 -5 25 -10z m-315 -50 c-4 -6 6 -11 22 -11 15 -1 44 -3 65 -4 63 -4 167 -62
234 -131 64 -67 92 -115 120 -201 l16 -52 -31 -63 c-60 -124 -162 -299 -194
-335 l-20 -23 -12 23 c-7 12 -21 38 -33 57 -12 19 -29 49 -37 67 -9 18 -23 37
-31 44 -8 6 -14 17 -14 23 0 12 -98 147 -152 210 -74 85 -136 139 -199 170
l-67 34 51 23 c61 28 207 119 249 154 31 26 43 32 33 15z m-2231 -112 c-4 -7
-3 -8 4 -4 6 4 31 -6 54 -21 24 -15 109 -60 191 -100 81 -40 147 -76 147 -79
0 -3 -15 -24 -34 -47 -18 -23 -31 -49 -29 -57 3 -11 2 -12 -4 -3 -19 26 -114
-101 -172 -227 -18 -41 -40 -87 -47 -101 -45 -87 -77 -197 -79 -274 -3 -78 -4
-80 -26 -77 -26 4 -269 104 -309 127 -14 8 -46 24 -72 36 -26 12 -45 25 -43
30 3 4 7 50 8 101 2 51 8 102 14 113 5 11 18 45 28 75 52 164 130 293 253 420
53 55 103 100 110 100 7 0 10 -5 6 -12z m-199 -78 c-3 -5 -11 -10 -16 -10 -6
0 -7 5 -4 10 3 6 11 10 16 10 6 0 7 -4 4 -10z m2060 -30 c-3 -5 -12 -10 -18
-10 -7 0 -6 4 3 10 19 12 23 12 15 0z m-45 -20 c0 -5 -2 -10 -4 -10 -3 0 -8 5
-11 10 -3 6 -1 10 4 10 6 0 11 -4 11 -10z m96 -56 c1 -9 0 -13 -4 -10 -3 4 -7
14 -8 22 -1 9 0 13 4 10 3 -4 7 -14 8 -22z m-169 -41 c168 -78 265 -161 354
-305 63 -102 106 -194 133 -286 14 -50 14 -53 -5 -71 -31 -29 -277 -152 -333
-167 -28 -8 -76 -14 -106 -14 -30 0 -71 -4 -90 -10 -132 -36 -915 -54 -1145
-25 -123 15 -341 58 -352 69 -11 11 82 354 119 436 11 24 68 116 126 203 104
157 106 159 136 153 188 -38 479 -48 739 -25 121 10 285 41 315 58 26 16 45
13 109 -16z m-1303 -2 c4 -5 -3 -7 -14 -4 -23 6 -26 13 -6 13 8 0 17 -4 20 -9z
m-14 -36 c-7 -8 -17 -15 -22 -15 -11 0 14 29 26 30 5 0 3 -7 -4 -15z m1768
-210 c-3 -3 -9 2 -12 12 -6 14 -5 15 5 6 7 -7 10 -15 7 -18z m36 -61 c3 -8 2
-12 -4 -9 -6 3 -10 10 -10 16 0 14 7 11 14 -7z m33 -76 c-3 -8 -6 -5 -6 6 -1
11 2 17 5 13 3 -3 4 -12 1 -19z m-2780 -40 c-3 -8 -6 -5 -6 6 -1 11 2 17 5 13
3 -3 4 -12 1 -19z m700 -80 c-3 -8 -6 -5 -6 6 -1 11 2 17 5 13 3 -3 4 -12 1
-19z m-702 -19 c11 -16 1 -19 -13 -3 -7 8 -8 14 -3 14 5 0 13 -5 16 -11z
m2884 -32 c-2 -1 -13 -9 -24 -17 -19 -14 -19 -14 -6 3 7 9 18 17 24 17 6 0 8
-1 6 -3z m-2202 -29 c-3 -8 -6 -5 -6 6 -1 11 2 17 5 13 3 -3 4 -12 1 -19z
m-602 -118 c3 -6 -1 -7 -9 -4 -18 7 -21 14 -7 14 6 0 13 -4 16 -10z m571 -2
c4 -7 3 -8 -5 -4 -8 6 -10 0 -6 -21 5 -26 5 -26 -5 -5 -13 31 0 57 16 30z
m-499 -24 c-3 -3 -12 -4 -19 -1 -8 3 -5 6 6 6 11 1 17 -2 13 -5z m58 -24 c3
-6 -1 -7 -9 -4 -18 7 -21 14 -7 14 6 0 13 -4 16 -10z"/>
<path d="M6057 5593 c-10 -10 -8 -1006 2 -1021 4 -8 19 -12 32 -10 l24 3 5
399 5 398 38 -118 c21 -66 67 -191 102 -279 35 -88 69 -180 75 -205 19 -70 32
-91 53 -88 38 6 42 28 30 190 -6 89 -9 264 -6 417 5 240 4 265 -11 277 -9 6
-26 10 -36 7 -19 -5 -20 -16 -20 -312 l-1 -306 -29 70 c-17 39 -48 124 -71
190 -34 101 -112 319 -134 378 -7 17 -45 24 -58 10z"/>
<path d="M6479 5553 c-11 -30 -11 -589 1 -633 5 -18 13 -25 31 -25 l24 0 3
143 c1 78 4 142 6 142 2 0 47 -16 101 -35 108 -39 138 -39 133 2 -3 22 -14 29
-83 54 -44 16 -86 31 -93 34 -21 8 16 52 101 120 80 63 96 87 77 110 -23 27
-45 15 -140 -74 l-95 -89 -5 136 c-5 133 -6 137 -27 140 -17 3 -26 -4 -34 -25z"/>
<path d="M4432 5453 c-12 -23 -24 -914 -13 -931 4 -8 19 -12 32 -10 l24 3 10
324 10 323 48 -183 c27 -105 73 -247 108 -336 55 -136 64 -153 85 -153 13 0
27 8 32 18 5 9 12 134 16 277 4 143 11 319 15 390 8 138 4 158 -33 153 -26 -4
-28 -24 -47 -386 l-13 -253 -28 73 c-16 40 -39 116 -52 168 -14 52 -38 145
-54 205 -17 61 -40 154 -52 208 -13 54 -29 105 -37 113 -19 19 -40 18 -51 -3z"/>
<path d="M4165 5440 c-47 -4 -62 -9 -70 -25 -9 -18 -13 -19 -35 -8 -38 19
-110 16 -148 -7 -41 -25 -67 -78 -58 -116 4 -16 27 -47 50 -69 55 -51 76 -93
76 -149 0 -47 -23 -76 -61 -76 -24 0 -78 65 -101 121 -21 49 -37 63 -63 53
-23 -9 -18 -45 15 -112 33 -66 85 -118 127 -128 37 -10 102 15 126 48 11 14
22 48 24 75 8 76 -11 127 -72 193 -59 65 -61 81 -14 105 36 19 73 6 93 -34 20
-38 31 -44 56 -31 24 13 25 25 6 63 l-15 27 46 0 46 0 -6 -227 c-4 -124 -7
-273 -7 -331 l0 -105 -52 5 c-66 7 -78 2 -78 -28 0 -14 6 -27 13 -29 6 -2 70
-11 141 -20 113 -14 131 -14 144 -1 16 16 10 44 -10 50 -7 3 -30 7 -50 11
l-38 6 0 122 c0 67 3 220 7 339 l6 217 50 -2 c37 -2 52 2 60 15 26 41 -60 60
-208 48z"/>
<path d="M5659 5394 c-24 -29 1 -49 70 -52 l61 -3 0 -419 0 -420 -74 0 c-78 0
-101 -12 -94 -47 3 -16 19 -19 157 -23 166 -5 189 0 177 38 -6 18 -15 22 -47
22 -23 0 -41 5 -44 13 -2 6 -5 197 -7 424 l-4 412 70 3 c66 3 71 5 74 27 2 13
-2 28 -10 32 -7 5 -81 9 -164 9 -126 0 -154 -3 -165 -16z"/>
<path d="M5415 5284 c-33 -7 -72 -13 -86 -13 -15 -1 -29 -7 -31 -13 -2 -7 -1
-231 2 -498 5 -469 6 -485 24 -488 42 -8 46 18 46 277 l0 246 76 2 c88 3 134
15 186 52 56 40 72 74 76 171 7 143 -19 200 -111 243 -68 32 -109 37 -182 21z
m160 -87 c22 -12 45 -33 52 -47 18 -36 17 -174 -2 -210 -23 -44 -85 -71 -175
-77 l-77 -6 -8 167 c-4 92 -4 170 -1 173 14 14 104 32 136 27 19 -3 53 -15 75
-27z"/>
<path d="M4931 5228 c-81 -42 -101 -116 -100 -362 1 -301 13 -508 32 -543 36
-68 101 -104 160 -89 13 3 36 18 52 34 29 29 29 29 45 9 11 -13 23 -17 37 -13
18 6 21 18 27 87 4 45 4 114 1 154 -10 100 -21 110 -129 110 -78 0 -81 -1 -84
-24 -4 -29 12 -41 56 -41 58 0 72 -14 72 -73 0 -40 -7 -65 -31 -105 -35 -61
-67 -81 -104 -64 -51 23 -54 45 -61 394 -9 416 1 468 88 468 29 0 47 -8 77
-35 43 -39 66 -44 80 -16 8 14 5 26 -12 51 -51 76 -130 98 -206 58z"/>
<path d="M4280 4270 c-8 -5 -10 -10 -5 -10 6 0 17 5 25 10 8 5 11 10 5 10 -5
0 -17 -5 -25 -10z"/>
<path d="M2293 7703 c-25 -10 -11 -43 75 -184 49 -79 110 -181 137 -227 46
-81 47 -84 28 -97 -11 -8 -33 -42 -49 -77 -37 -83 -41 -200 -8 -245 45 -60
111 -31 154 69 16 37 21 70 22 134 l0 84 -73 127 c-40 71 -94 162 -121 203
-49 77 -49 96 -1 62 40 -28 170 -92 187 -92 20 0 29 30 14 47 -6 8 -44 31 -82
50 -39 20 -112 62 -162 94 -91 59 -98 62 -121 52z"/>
<path d="M7803 7629 c-7 -7 -10 -32 -7 -63 12 -157 25 -317 30 -357 6 -47 6
-47 -32 -59 -83 -28 -199 -189 -178 -248 23 -64 135 -42 193 38 16 23 37 65
46 93 9 29 20 60 26 69 11 22 12 106 0 178 -5 30 -12 107 -16 171 -4 64 -10
131 -14 150 -7 35 -28 48 -48 28z"/>
<path d="M950 5894 c0 -13 14 -63 31 -111 16 -48 44 -128 60 -177 17 -50 69
-162 115 -251 46 -89 84 -167 84 -173 0 -6 -18 -30 -40 -54 -22 -24 -55 -73
-74 -109 -27 -54 -34 -82 -40 -158 -6 -75 -5 -97 8 -115 19 -30 57 -39 106
-26 59 16 99 56 142 145 37 75 39 84 35 150 -4 64 -12 95 -36 135 -18 31 -121
239 -131 264 -9 26 -8 26 73 -18 90 -49 248 -99 294 -94 22 2 28 8 28 27 0 21
-9 25 -93 47 -102 25 -203 70 -300 133 -51 33 -67 51 -84 89 -11 26 -28 65
-38 87 -33 73 -50 118 -48 121 2 1 39 -20 83 -47 96 -60 251 -121 363 -144 92
-18 112 -16 112 14 0 23 -28 41 -63 41 -44 0 -200 50 -282 91 -44 22 -131 66
-192 97 -107 55 -113 57 -113 36z"/>
<path d="M8982 5074 c-10 -18 -21 -22 -342 -131 -124 -41 -241 -83 -260 -93
-78 -39 -259 -84 -333 -81 -30 1 -39 -3 -46 -22 -5 -12 -5 -29 0 -39 12 -22
35 -152 44 -238 3 -36 14 -112 25 -170 37 -208 38 -192 -18 -268 -125 -170
-139 -217 -75 -251 66 -34 167 78 218 241 14 47 15 61 5 73 -7 8 -18 15 -25
15 -12 0 -52 222 -76 420 -6 47 -14 103 -19 125 -5 22 -7 41 -5 43 2 2 53 14
113 27 60 13 142 37 183 54 41 16 80 31 88 33 24 5 71 -148 101 -327 11 -66
32 -161 47 -211 l26 -91 -40 -54 c-55 -73 -74 -113 -90 -187 -14 -69 -8 -93
28 -112 45 -25 109 55 154 193 30 93 29 104 -19 272 -14 50 -33 131 -41 180
-23 132 -41 211 -69 292 l-25 72 52 19 c29 11 95 33 147 50 52 16 132 44 178
61 60 22 84 27 87 18 2 -6 14 -67 25 -134 11 -67 39 -180 61 -250 42 -131 85
-277 95 -325 4 -16 -5 -61 -24 -120 -36 -108 -47 -174 -38 -223 8 -41 36 -61
66 -45 47 25 102 194 104 319 1 82 0 85 -24 91 -19 4 -27 17 -38 55 -8 28 -39
127 -68 220 -29 94 -58 197 -63 230 -6 33 -15 90 -22 127 -6 36 -8 80 -5 96 6
24 3 32 -18 46 -32 20 -53 20 -64 0z"/>
<path d="M2496 3723 c-3 -4 -119 -10 -257 -13 -137 -4 -254 -11 -259 -16 -5
-5 -11 -95 -14 -199 -7 -273 -22 -551 -30 -563 -4 -6 -35 -26 -69 -44 -40 -20
-92 -62 -144 -115 -79 -79 -83 -86 -83 -128 0 -50 23 -79 68 -88 35 -7 48 2
177 124 110 106 143 155 126 187 -20 38 28 759 52 773 1 1 101 5 222 10 121 4
232 11 247 15 l26 6 7 -86 c9 -107 0 -628 -12 -675 -7 -28 -18 -40 -58 -60
-151 -78 -235 -171 -235 -260 0 -30 6 -44 22 -55 32 -23 62 -20 132 14 76 37
132 90 181 171 37 60 38 63 26 108 -9 36 -9 74 0 166 7 74 10 227 7 401 -5
327 -6 334 -82 334 -23 0 -46 -3 -50 -7z"/>
<path d="M6337 3116 c-132 -36 -177 -143 -128 -304 27 -91 93 -160 207 -216
43 -22 81 -41 83 -43 3 -2 -19 -37 -48 -78 -98 -140 -129 -246 -118 -404 6
-85 41 -227 77 -308 56 -126 154 -183 315 -183 87 0 135 21 192 82 79 87 103
159 103 313 -1 128 -15 169 -113 337 -71 119 -127 175 -228 228 l-79 41 34 67
c124 248 124 415 -1 468 -41 18 -230 17 -296 0z m278 -60 c26 -11 36 -23 44
-53 14 -50 14 -68 -4 -135 -21 -82 -105 -258 -122 -258 -24 0 -147 68 -190
104 -50 43 -81 108 -89 183 -11 104 30 152 141 166 76 10 188 6 220 -7z m45
-573 c108 -63 160 -127 251 -309 l44 -89 0 -120 c0 -102 -4 -127 -22 -167 -33
-72 -70 -115 -120 -139 -88 -43 -252 -8 -308 66 -56 73 -115 272 -115 390 0
72 22 170 51 228 12 23 45 74 73 113 57 80 55 79 146 27z"/>
<path d="M5627 2974 c-94 -98 -113 -136 -72 -142 15 -2 41 18 89 68 57 59 85
81 86 68 0 -2 5 -82 10 -178 5 -96 18 -249 29 -340 11 -91 25 -262 31 -380 6
-118 15 -266 21 -328 6 -62 9 -116 6 -119 -3 -3 -61 -9 -129 -14 -67 -5 -126
-13 -131 -18 -5 -5 -7 -17 -5 -27 3 -17 13 -19 83 -17 79 2 498 40 543 49 17
4 22 10 20 27 -3 21 -8 22 -83 22 -44 0 -112 -4 -152 -8 -64 -8 -72 -7 -77 10
-8 28 -25 237 -36 458 -6 110 -19 274 -30 365 -10 91 -22 226 -25 300 -7 141
-26 263 -46 286 -6 8 -18 14 -25 14 -8 0 -56 -43 -107 -96z"/>
<path d="M5045 2981 c-93 -24 -163 -93 -184 -182 -31 -133 -40 -599 -16 -924
16 -225 35 -307 88 -377 51 -67 87 -83 188 -83 78 0 89 2 122 28 26 20 50 55
82 120 69 143 77 183 82 419 9 369 -40 802 -104 910 -35 60 -178 109 -258 89z
m131 -69 c68 -21 116 -101 128 -212 35 -329 40 -396 40 -635 1 -294 -4 -326
-75 -473 -46 -95 -78 -122 -147 -122 -92 0 -148 48 -182 156 -40 131 -61 627
-40 949 16 240 33 289 112 328 33 17 123 21 164 9z"/>
<path d="M4475 2941 c-114 -41 -185 -79 -185 -99 0 -33 25 -32 112 3 133 54
171 62 202 41 15 -9 32 -28 38 -42 33 -72 -69 -265 -355 -674 -63 -89 -128
-162 -294 -327 -140 -139 -213 -218 -213 -232 0 -40 41 -53 228 -72 97 -9 258
-33 358 -53 223 -44 226 -45 222 -8 -3 27 -5 27 -163 60 -180 36 -324 57 -467
67 -54 4 -98 11 -98 15 0 4 75 79 167 166 172 164 219 219 339 389 224 318
328 504 339 606 8 81 -3 110 -56 149 -49 35 -97 38 -174 11z"/>
</g>
</svg>
