<?xml version="1.0" standalone="no"?>
<!DOCTYPE svg PUBLIC "-//W3C//DTD SVG 20010904//EN"
 "http://www.w3.org/TR/2001/REC-SVG-20010904/DTD/svg10.dtd">
<svg version="1.0" xmlns="http://www.w3.org/2000/svg"
 width="781.000000pt" height="381.000000pt" viewBox="0 0 781.000000 381.000000"
 preserveAspectRatio="xMidYMid meet">

<g transform="translate(0.000000,381.000000) scale(0.100000,-0.100000)"
fill="#000000" stroke="none">
<path d="M410 3700 l0 -100 -100 0 -100 0 0 -100 0 -100 -100 0 -100 0 0 -900
0 -900 100 0 100 0 0 -100 0 -100 100 0 100 0 0 -100 0 -100 1050 0 1050 0 0
-200 0 -200 -100 0 -100 0 0 -300 0 -300 -100 0 -100 0 0 -100 0 -100 100 0
100 0 0 100 0 100 300 0 300 0 0 100 0 100 100 0 100 0 0 100 0 100 100 0 100
0 0 100 0 100 100 0 100 0 0 200 0 200 1950 0 1950 0 0 100 0 100 100 0 100 0
0 100 0 100 100 0 100 0 0 900 0 900 -100 0 -100 0 0 100 0 100 -100 0 -100 0
0 100 0 100 -3500 0 -3500 0 0 -100z m7000 -200 l0 -100 100 0 100 0 0 -900 0
-900 -100 0 -100 0 0 -100 0 -100 -2050 0 -2050 0 0 -300 0 -300 -100 0 -100
0 0 -100 0 -100 -100 0 -100 0 0 -100 0 -100 -200 0 -200 0 0 200 0 200 100 0
100 0 0 300 0 300 -1150 0 -1150 0 0 100 0 100 -100 0 -100 0 0 900 0 900 100
0 100 0 0 100 0 100 3500 0 3500 0 0 -100z"/>
</g>
</svg>
